<svg width="290" height="353" viewBox="0 0 290 353" fill="none" xmlns="http://www.w3.org/2000/svg">
<g clip-path="url(#clip0_1_2)">
<mask id="mask0_1_2" style="mask-type:luminance" maskUnits="userSpaceOnUse" x="34" y="0" width="223" height="223">
<path d="M256.214 0H34.1162V222.098H256.214V0Z" fill="white"/>
</mask>
<g mask="url(#mask0_1_2)">
<path d="M156.726 221.556C155.618 221.669 154.488 221.759 153.358 221.849H153.177C154.375 221.759 155.55 221.669 156.726 221.556Z" fill="#63B358"/>
<path d="M228.725 184.249C226.804 186.464 224.77 188.613 222.644 190.647C224.747 188.59 226.781 186.464 228.725 184.249Z" fill="#63B358"/>
<path d="M181.91 215.901C180.735 216.308 179.56 216.716 178.361 217.077C179.356 216.76 180.351 216.421 181.323 216.083C181.527 216.037 181.707 215.97 181.91 215.901Z" fill="#63B358"/>
<path d="M187.652 213.708C186.024 214.41 184.352 215.042 182.633 215.654C182.792 215.562 182.972 215.495 183.154 215.428C184.669 214.885 186.183 214.319 187.652 213.708Z" fill="#63B358"/>
<path d="M192.511 211.538C191.222 212.172 189.934 212.759 188.6 213.302C188.803 213.189 189.008 213.099 189.232 213.009C190.318 212.533 191.426 212.036 192.511 211.538Z" fill="#63B358"/>
<path d="M194.975 210.34C194.591 210.545 194.207 210.725 193.799 210.928C193.37 211.132 192.94 211.358 192.511 211.538C192.94 211.335 193.37 211.132 193.799 210.905C194.207 210.725 194.591 210.522 194.975 210.34Z" fill="#63B358"/>
<path d="M181.91 215.901C180.735 216.308 179.56 216.716 178.361 217.077C179.356 216.76 180.351 216.421 181.323 216.083C181.527 216.037 181.707 215.97 181.91 215.901Z" fill="#63B358"/>
<path d="M187.652 213.708C186.024 214.41 184.352 215.042 182.633 215.654C182.792 215.562 182.972 215.495 183.154 215.428C184.669 214.885 186.183 214.319 187.652 213.708Z" fill="#63B358"/>
<path d="M192.511 211.538C191.222 212.172 189.934 212.759 188.6 213.302C188.803 213.189 189.008 213.099 189.232 213.009C190.318 212.533 191.426 212.036 192.511 211.538Z" fill="#63B358"/>
<path d="M194.975 210.34C194.591 210.545 194.207 210.725 193.799 210.928C193.37 211.132 192.94 211.358 192.511 211.538C192.94 211.335 193.37 211.132 193.799 210.905C194.207 210.725 194.591 210.522 194.975 210.34Z" fill="#63B358"/>
<path d="M243.668 162.385C242.989 163.696 242.266 165.007 241.544 166.296C241.498 166.342 241.475 166.386 241.475 166.432C240.752 167.653 240.006 168.874 239.26 170.096C238.468 171.338 237.655 172.582 236.819 173.804C235.982 175.002 235.145 176.2 234.264 177.398C233.383 178.574 232.478 179.726 231.552 180.88C230.624 182.01 229.675 183.141 228.726 184.249C226.782 186.463 224.748 188.59 222.645 190.647C221.651 191.596 220.656 192.547 219.638 193.45C216.701 196.119 213.648 198.605 210.439 200.912C209.467 201.658 208.472 202.359 207.454 203.015C206.957 203.399 206.437 203.715 205.939 204.031C205.465 204.349 204.968 204.666 204.47 204.982C203.385 205.682 202.323 206.338 201.215 206.972C199.18 208.171 197.123 209.3 194.998 210.362C194.615 210.544 194.23 210.747 193.823 210.928C193.394 211.154 192.964 211.357 192.535 211.56C191.449 212.059 190.341 212.556 189.256 213.031C189.032 213.121 188.827 213.211 188.623 213.324C188.397 213.437 188.194 213.528 187.968 213.619C187.878 213.664 187.764 213.71 187.674 213.732C186.205 214.342 184.691 214.908 183.176 215.45C182.996 215.518 182.814 215.586 182.656 215.677C182.43 215.767 182.181 215.834 181.934 215.926C181.729 215.993 181.548 216.06 181.345 216.106C180.373 216.445 179.378 216.785 178.383 217.101C176.531 217.688 174.654 218.231 172.755 218.729C170.675 219.249 168.574 219.724 166.448 220.153C165.385 220.357 164.323 220.537 163.261 220.719C162.176 220.899 161.091 221.057 160.006 221.216C158.943 221.352 157.836 221.488 156.751 221.601C155.575 221.712 154.399 221.804 153.201 221.894C152.003 221.985 150.805 222.052 149.607 222.098C149.11 222.098 148.613 222.144 148.115 222.144C148.364 221.712 148.613 221.306 148.906 220.876C150.172 218.865 151.506 216.898 152.885 214.975C157.926 207.944 163.668 201.432 169.997 195.599C171.58 194.106 173.185 192.704 174.834 191.326C176.485 189.924 178.203 188.59 179.921 187.278C198.051 173.622 219.91 164.737 243.691 162.407L243.668 162.385Z" fill="#63B358"/>
<path d="M181.91 215.901C180.735 216.308 179.56 216.716 178.361 217.077C179.356 216.76 180.351 216.421 181.323 216.083C181.527 216.037 181.707 215.97 181.91 215.901Z" fill="#63B358"/>
<path d="M187.652 213.708C186.024 214.41 184.352 215.042 182.633 215.654C182.792 215.562 182.972 215.495 183.154 215.428C184.669 214.885 186.183 214.319 187.652 213.708Z" fill="#63B358"/>
<path d="M192.511 211.538C191.222 212.172 189.934 212.759 188.6 213.302C188.803 213.189 189.008 213.099 189.232 213.009C190.318 212.533 191.426 212.036 192.511 211.538Z" fill="#63B358"/>
<path d="M194.975 210.34C194.591 210.545 194.207 210.725 193.799 210.928C193.37 211.132 192.94 211.358 192.511 211.538C192.94 211.335 193.37 211.132 193.799 210.905C194.207 210.725 194.591 210.522 194.975 210.34Z" fill="#63B358"/>
<path d="M110.342 187.233C105.12 194.717 100.463 202.607 96.4396 210.882C95.4901 210.431 94.5407 209.956 93.6138 209.436C93.3199 209.3 93.0262 209.141 92.7549 208.984C92.5288 208.894 92.3028 208.758 92.0767 208.622C90.9691 208.035 89.884 207.423 88.7989 206.791C88.7085 206.723 88.618 206.677 88.5277 206.632C87.2843 205.886 86.0411 205.117 84.843 204.348C82.3564 202.766 79.9377 201.048 77.6093 199.239C76.4564 198.357 75.3035 197.43 74.1959 196.503C74.1959 196.48 74.1506 196.458 74.128 196.435C74.0377 196.345 73.9246 196.276 73.8342 196.186C73.0882 195.599 72.3648 194.965 71.664 194.309C71.5285 194.196 71.3927 194.062 71.2572 193.949C71.1216 193.836 70.9633 193.722 70.8277 193.586C69.7427 192.614 68.6801 191.596 67.6177 190.58C65.4929 188.544 63.4584 186.397 61.5369 184.18C60.5648 183.072 59.638 181.943 58.7113 180.812C57.7845 179.659 56.8802 178.505 55.9986 177.33C55.1621 176.222 54.371 175.091 53.5798 173.961C53.4216 173.689 53.2408 173.419 53.0373 173.169C52.3592 172.13 51.6584 171.089 51.0028 170.027C50.2342 168.806 49.5108 167.584 48.7874 166.363C48.7649 166.319 48.7423 166.273 48.7197 166.229C47.9963 164.94 47.2729 163.628 46.5947 162.317C70.3756 164.645 92.2349 173.599 110.319 187.256L110.342 187.233Z" fill="#F48120"/>
<path d="M214.394 116.057C214.507 114.429 214.574 112.778 214.574 111.105C214.574 72.7588 183.515 41.6701 145.176 41.6701C106.86 41.6701 75.7553 72.7135 75.7553 111.06C75.7553 112.733 75.8232 114.384 75.9361 116.012C62.5311 112.778 48.5384 111.037 34.1162 111.037C34.1162 80.3783 46.5491 52.6133 66.6905 32.5357C70.4656 28.7598 74.5119 25.2552 78.7843 22.0674C80.2085 21.0046 81.6553 19.9872 83.1246 18.9697C86.7188 16.5278 90.4714 14.2895 94.3595 12.2998C96.9591 10.9658 99.6038 9.72228 102.294 8.59179C103.628 8.00393 105.007 7.48389 106.385 6.96387C109.143 5.94642 111.946 5.01942 114.795 4.20546C115.676 3.93413 116.558 3.70803 117.462 3.48194C121.011 2.55493 124.628 1.83141 128.29 1.26617C129.217 1.1079 130.144 0.994845 131.071 0.881796C135.682 0.316547 140.407 8.35583e-06 145.199 0.0226182C149.991 0.0452282 154.716 0.316547 159.35 0.904406C160.277 1.01746 161.203 1.13051 162.13 1.28878C165.792 1.85402 169.409 2.57753 172.958 3.50455C173.84 3.73065 174.744 3.95676 175.626 4.22807C178.475 5.04203 181.278 5.96902 184.035 6.98648C192.308 10.0614 200.085 14.1086 207.296 18.9923H207.319C208.788 20.0098 210.235 21.0273 211.658 22.09C215.932 25.2779 219.977 28.7824 223.729 32.5583C243.848 52.6585 256.236 80.4462 256.213 111.105C241.814 111.105 227.798 112.801 214.394 116.034V116.057Z" fill="#FF6726"/>
<path d="M110.342 187.233C105.12 194.717 100.463 202.607 96.4396 210.882C95.4901 210.431 94.5407 209.956 93.6138 209.436C93.3199 209.3 93.0262 209.141 92.7549 208.984C92.5288 208.894 92.3028 208.758 92.0767 208.622C90.9691 208.035 89.884 207.423 88.7989 206.791C88.7085 206.723 88.618 206.677 88.5277 206.632C87.2843 205.886 86.0411 205.117 84.843 204.348C82.3564 202.743 79.9601 201.025 77.6093 199.239C76.4564 198.357 75.3035 197.43 74.1959 196.503C74.1959 196.48 74.1506 196.458 74.128 196.435C74.0377 196.345 73.9246 196.276 73.8342 196.186C73.0882 195.599 72.3648 194.965 71.664 194.309C71.5285 194.196 71.3927 194.062 71.2572 193.949C71.1216 193.836 70.9633 193.722 70.8277 193.586C69.7427 192.614 68.6801 191.596 67.6177 190.58C65.5154 188.521 63.4809 186.397 61.5369 184.18C60.5648 183.072 59.638 181.943 58.7113 180.812C57.7845 179.659 56.8802 178.505 55.9986 177.33C55.1621 176.222 54.371 175.091 53.5798 173.961C53.4216 173.689 53.2408 173.419 53.0373 173.169C52.3592 172.13 51.6584 171.089 51.0028 170.027C50.2342 168.806 49.5108 167.584 48.7874 166.363C48.7649 166.319 48.7423 166.273 48.7197 166.229C47.9963 164.94 47.2729 163.628 46.5947 162.317C70.3756 164.645 92.2349 173.599 110.319 187.256L110.342 187.233Z" fill="#008C44"/>
<path d="M181.91 215.901C180.735 216.308 179.56 216.716 178.361 217.077C179.356 216.76 180.351 216.421 181.323 216.083C181.527 216.037 181.707 215.97 181.91 215.901Z" fill="#008C44"/>
<path d="M187.652 213.708C186.024 214.41 184.352 215.042 182.633 215.654C182.792 215.562 182.972 215.495 183.154 215.428C184.669 214.885 186.183 214.319 187.652 213.708Z" fill="#008C44"/>
<path d="M192.513 211.538C192.942 211.357 193.372 211.131 193.801 210.928C193.372 211.131 192.942 211.334 192.513 211.538ZM189.234 213.008C189.008 213.098 188.805 213.188 188.601 213.301C189.936 212.759 191.224 212.17 192.513 211.538C191.427 212.036 190.319 212.533 189.234 213.008ZM183.154 215.428C182.972 215.495 182.792 215.562 182.633 215.654C184.352 215.042 186.024 214.41 187.652 213.708C186.183 214.319 184.669 214.885 183.154 215.428Z" fill="#008C44"/>
<path d="M110.342 187.233C105.12 194.717 100.463 202.607 96.4396 210.882C95.4901 210.431 94.5407 209.956 93.6138 209.436C93.3199 209.3 93.0262 209.141 92.7549 208.984C92.5288 208.894 92.3028 208.758 92.0767 208.622C90.9691 208.035 89.884 207.423 88.7989 206.791C88.7085 206.723 88.618 206.677 88.5277 206.632C87.2843 205.886 86.0411 205.117 84.843 204.348C82.3564 202.743 79.9601 201.025 77.6093 199.239C76.4564 198.357 75.3035 197.43 74.1959 196.503C74.1959 196.48 74.1506 196.458 74.128 196.435C74.0377 196.345 73.9246 196.276 73.8342 196.186C73.0882 195.599 72.3648 194.965 71.664 194.309C71.5285 194.196 71.3927 194.062 71.2572 193.949C71.1216 193.836 70.9633 193.722 70.8277 193.586C69.7427 192.614 68.6801 191.596 67.6177 190.58C65.5154 188.521 63.4809 186.397 61.5369 184.18C60.5648 183.072 59.638 181.943 58.7113 180.812C57.7845 179.659 56.8802 178.505 55.9986 177.33C55.1621 176.222 54.371 175.091 53.5798 173.961C53.4216 173.689 53.2408 173.419 53.0373 173.169C52.3592 172.13 51.6584 171.089 51.0028 170.027C50.2342 168.806 49.5108 167.584 48.7874 166.363C48.7649 166.319 48.7423 166.273 48.7197 166.229C47.9963 164.94 47.2729 163.628 46.5947 162.317C70.3756 164.645 92.2349 173.599 110.319 187.256L110.342 187.233Z" fill="#008C44"/>
<path d="M135.206 158.654C129.532 163.922 124.219 169.551 119.314 175.522C118.885 175.995 118.5 176.471 118.116 176.946C96.3697 160.599 69.7406 150.402 40.7831 149.022C40.4215 148.027 40.0597 147.01 39.7434 145.993C39.4042 144.998 39.0652 143.98 38.7713 142.94C38.4774 141.991 38.2062 141.041 37.9576 140.069C36.7368 135.592 35.81 131.025 35.1544 126.322C35.0639 125.644 34.9736 124.965 34.8831 124.264C34.8831 124.129 34.8831 123.993 34.8379 123.857C49.8931 123.925 64.4961 126.028 78.3533 129.894C99.2631 135.75 118.523 145.631 135.206 158.654Z" fill="#008C44"/>
<path d="M255.493 123.948C255.493 124.083 255.471 124.219 255.449 124.355C255.357 125.056 255.267 125.734 255.177 126.412C254.521 131.115 253.595 135.682 252.374 140.159C252.125 141.131 251.854 142.081 251.561 143.031C251.266 144.071 250.927 145.088 250.589 146.083C250.272 147.1 249.91 148.118 249.548 149.113C220.569 150.447 193.939 160.621 172.17 176.945C170.452 178.256 168.757 179.591 167.083 180.971C165.434 182.326 163.829 183.728 162.247 185.175C156.007 190.828 150.266 197.068 145.134 203.761C143.755 205.547 142.444 207.356 141.156 209.21C139.867 211.087 138.601 212.985 137.403 214.93C136.047 217.1 134.758 219.316 133.515 221.555C132.43 221.442 131.345 221.306 130.26 221.17C129.175 221.013 128.09 220.854 127.027 220.674C125.965 220.492 124.88 220.311 123.84 220.108C121.715 219.679 119.613 219.203 117.533 218.684C117.488 218.661 117.443 218.661 117.398 218.661C116.606 218.457 115.838 218.231 115.069 218.028C113.826 217.666 112.605 217.305 111.385 216.92C110.367 216.58 109.35 216.241 108.355 215.902C111.837 208.802 115.838 202.02 120.291 195.554C121.512 193.767 122.755 192.026 124.066 190.308C125.332 188.567 126.666 186.849 128.045 185.175C129.627 183.231 131.255 181.308 132.927 179.433C136.77 175.069 140.862 170.909 145.157 166.998C146.739 165.55 148.344 164.149 149.995 162.769C151.645 161.345 153.34 159.988 155.081 158.654C171.786 145.631 191.046 135.795 211.978 129.939C225.836 126.073 240.439 124.016 255.493 123.948Z" fill="#63B358"/>
<path d="M214.574 111.106C214.574 112.779 214.506 114.429 214.394 116.057C188.691 122.23 165.159 134.032 145.153 150.062C125.17 134.055 101.661 122.23 75.9357 116.012C75.8227 114.384 75.7549 112.733 75.7549 111.06C75.7549 72.7138 106.86 41.6704 145.176 41.6704C183.514 41.6704 214.574 72.7591 214.574 111.106Z" fill="#FFCE00"/>
</g>
<path d="M235.387 308.592V262.835H252.381L261.859 286.366H263.493L272.972 262.835H289.967V308.592H277.875V282.444L278.855 276.562H278.201L269.377 298.133H255.977L247.152 276.562H246.499L247.48 282.444V308.592H235.387Z" fill="#15783F"/>
<path d="M214.771 308.592V262.835H226.863V308.592H214.771Z" fill="#15783F"/>
<path d="M175.894 308.592V262.835H187.986V297.479H209.884V308.592H175.894Z" fill="#15783F"/>
<path d="M133.763 308.592V262.835H169.061V273.947H145.855V280.809H164.486V290.615H145.855V297.479H169.061V308.592H133.763Z" fill="#15783F"/>
<path d="M94.8232 308.592V262.835H106.916V308.592H94.8232Z" fill="#15783F"/>
<path d="M43.5312 308.592L55.9507 262.835H78.1753L90.595 308.592H78.1753L75.8875 299.44H58.2387L55.9507 308.592H43.5312ZM60.8533 288.981H73.2729L69.3508 273.947H64.7752L60.8533 288.981Z" fill="#15783F"/>
<path d="M0.0322266 308.592V262.835H24.5446C29.2509 262.835 32.9334 263.923 35.5916 266.102C38.2498 268.282 39.5789 271.005 39.5789 274.274C39.5789 277.542 38.3804 280.113 35.9837 281.986C34.8506 282.772 33.6523 283.36 32.3886 283.752V284.078C34.0444 284.558 35.5044 285.234 36.7681 286.104C39.7314 288.153 41.2131 291.181 41.2131 295.191C41.2131 299.113 39.7096 302.338 36.7027 304.865C33.6959 307.349 29.4254 308.592 23.8909 308.592H0.0322266ZM12.125 280.483H21.93C23.5424 280.483 24.7625 280.134 25.5905 279.437C26.4185 278.696 26.8324 277.737 26.8324 276.562C26.8324 275.385 26.4185 274.447 25.5905 273.751C24.7625 273.01 23.5424 272.639 21.93 272.639H12.125V280.483ZM12.125 298.785H22.5836C24.6317 298.785 26.1788 298.372 27.2247 297.545C28.2705 296.717 28.7934 295.605 28.7934 294.21C28.7934 292.815 28.2705 291.704 27.2247 290.876C26.1788 290.048 24.6317 289.635 22.5836 289.635H12.125V298.785Z" fill="#15783F"/>
<path d="M196.44 351.837V349.824L201.888 345.798C203.388 344.676 204.453 343.714 205.084 342.909C205.717 342.103 206.032 341.172 206.032 340.114C206.032 339.15 205.701 338.362 205.038 337.746C204.391 337.115 203.538 336.798 202.479 336.798C201.122 336.798 200.112 337.351 199.448 338.455C199.132 338.962 198.919 339.514 198.809 340.114H196.558C196.701 339.136 197.009 338.251 197.483 337.462C198.604 335.677 200.27 334.785 202.479 334.785C204.122 334.785 205.479 335.298 206.553 336.324C207.627 337.351 208.164 338.614 208.164 340.114C208.164 341.55 207.753 342.814 206.932 343.903C206.127 344.976 204.919 346.083 203.309 347.219L199.875 349.658L199.639 349.801V349.848L199.852 349.824H208.164V351.837H196.44Z" fill="#F74B39"/>
<path d="M181.681 349.871C180.228 348.245 179.502 346.137 179.502 343.549C179.502 340.959 180.228 338.85 181.681 337.224C183.133 335.598 184.893 334.785 186.962 334.785C189.029 334.785 190.79 335.598 192.242 337.224C193.695 338.85 194.421 340.959 194.421 343.549C194.421 346.137 193.695 348.245 192.242 349.871C190.79 351.497 189.029 352.31 186.962 352.31C184.893 352.31 183.133 351.497 181.681 349.871ZM183.125 338.598C182.13 339.782 181.633 341.432 181.633 343.549C181.633 345.663 182.13 347.322 183.125 348.522C184.134 349.706 185.415 350.297 186.962 350.297C188.508 350.297 189.78 349.706 190.775 348.522C191.785 347.322 192.29 345.663 192.29 343.549C192.29 341.432 191.785 339.782 190.775 338.598C189.78 337.398 188.508 336.798 186.962 336.798C185.415 336.798 184.134 337.398 183.125 338.598Z" fill="#F74B39"/>
<path d="M164.145 349.871C162.692 348.245 161.966 346.137 161.966 343.549C161.966 340.959 162.692 338.85 164.145 337.224C165.597 335.598 167.358 334.785 169.427 334.785C171.494 334.785 173.254 335.598 174.707 337.224C176.161 338.85 176.887 340.959 176.887 343.549C176.887 346.137 176.161 348.245 174.707 349.871C173.254 351.497 171.494 352.31 169.427 352.31C167.358 352.31 165.597 351.497 164.145 349.871ZM165.589 338.598C164.594 339.782 164.097 341.432 164.097 343.549C164.097 345.663 164.594 347.322 165.589 348.522C166.6 349.706 167.879 350.297 169.427 350.297C170.974 350.297 172.244 349.706 173.239 348.522C174.249 347.322 174.754 345.663 174.754 343.549C174.754 341.432 174.249 339.782 173.239 338.598C172.244 337.398 170.974 336.798 169.427 336.798C167.879 336.798 166.6 337.398 165.589 338.598Z" fill="#F74B39"/>
<path d="M147.868 351.837V349.824L153.315 345.798C154.815 344.676 155.881 343.714 156.512 342.909C157.144 342.103 157.46 341.172 157.46 340.114C157.46 339.15 157.128 338.362 156.465 337.746C155.818 337.115 154.965 336.798 153.907 336.798C152.55 336.798 151.539 337.351 150.876 338.455C150.56 338.962 150.347 339.514 150.236 340.114H147.987C148.129 339.136 148.436 338.251 148.91 337.462C150.031 335.677 151.697 334.785 153.907 334.785C155.549 334.785 156.907 335.298 157.981 336.324C159.054 337.351 159.591 338.614 159.591 340.114C159.591 341.55 159.181 342.814 158.36 343.903C157.555 344.976 156.347 346.083 154.736 347.219L151.302 349.658L151.065 349.801V349.848L151.278 349.824H159.591V351.837H147.868Z" fill="#F74B39"/>
<path d="M129.227 350.322C128.074 349.153 127.498 347.685 127.498 345.916C127.498 344.149 128.074 342.68 129.227 341.511C130.38 340.342 131.816 339.759 133.537 339.759C135.258 339.759 136.695 340.336 137.848 341.488C139 342.641 139.576 344.077 139.576 345.798V346.509H129.393C129.519 347.614 129.969 348.522 130.743 349.232C131.516 349.942 132.448 350.298 133.537 350.298C134.706 350.298 135.708 349.942 136.545 349.232C136.924 348.916 137.224 348.562 137.445 348.167H139.34C139.055 348.909 138.653 349.563 138.132 350.132C136.9 351.427 135.369 352.075 133.537 352.075C131.816 352.075 130.38 351.489 129.227 350.322ZM129.44 344.85H137.563C137.421 343.919 136.987 343.137 136.261 342.506C135.535 341.859 134.627 341.536 133.537 341.536C132.448 341.536 131.532 341.859 130.79 342.506C130.048 343.137 129.598 343.919 129.44 344.85Z" fill="#F74B39"/>
<path d="M115.816 350.322C114.679 349.153 114.11 347.685 114.11 345.916C114.11 344.149 114.679 342.68 115.816 341.511C116.952 340.342 118.358 339.759 120.031 339.759C121.973 339.759 123.513 340.454 124.649 341.842C125.139 342.459 125.494 343.145 125.715 343.903H123.82C123.647 343.477 123.386 343.083 123.039 342.719C122.281 341.929 121.278 341.536 120.031 341.536C118.879 341.536 117.916 341.946 117.142 342.767C116.384 343.588 116.005 344.637 116.005 345.916C116.005 347.196 116.4 348.245 117.189 349.066C117.979 349.888 118.926 350.298 120.031 350.298C121.326 350.298 122.36 349.863 123.134 348.996C123.481 348.632 123.749 348.198 123.939 347.693H125.833C125.628 348.498 125.265 349.232 124.744 349.896C123.544 351.348 121.973 352.075 120.031 352.075C118.358 352.075 116.952 351.489 115.816 350.322Z" fill="#F74B39"/>
<path d="M100.968 351.837V339.997H102.862V341.772H102.886C103.123 341.393 103.431 341.062 103.81 340.777C104.678 340.098 105.704 339.759 106.888 339.759C108.325 339.759 109.47 340.216 110.323 341.133C111.191 342.032 111.625 343.272 111.625 344.85V351.837H109.73V344.97C109.73 343.832 109.446 342.98 108.878 342.411C108.31 341.828 107.528 341.536 106.533 341.536C105.444 341.536 104.56 341.898 103.881 342.624C103.202 343.336 102.862 344.275 102.862 345.442V351.837H100.968Z" fill="#F74B39"/>
<path d="M95.7861 337.367C95.5335 337.115 95.4072 336.807 95.4072 336.443C95.4072 336.08 95.5335 335.772 95.7861 335.52C96.0387 335.267 96.3465 335.141 96.7098 335.141C97.0729 335.141 97.3807 335.267 97.6333 335.52C97.8859 335.772 98.0123 336.08 98.0123 336.443C98.0123 336.807 97.8859 337.115 97.6333 337.367C97.3807 337.62 97.0729 337.746 96.7098 337.746C96.3465 337.746 96.0387 337.62 95.7861 337.367ZM95.7625 351.837V339.995H97.6571V351.837H95.7625Z" fill="#F74B39"/>
<path d="M82.8604 348.167H84.8734C85.047 348.593 85.276 348.948 85.5602 349.232C86.2707 349.942 87.1863 350.298 88.3074 350.298C89.3179 350.298 90.06 350.132 90.5335 349.801C91.023 349.47 91.2678 349.042 91.2678 348.522C91.2678 348.237 91.1652 347.993 90.9599 347.788C90.7704 347.583 90.4547 347.401 90.0126 347.242C89.5705 347.085 89.1757 346.967 88.8284 346.888C88.4968 346.793 88.0075 346.683 87.3601 346.555C84.755 346.019 83.4523 344.859 83.4523 343.075C83.4523 342.142 83.847 341.362 84.6365 340.729C85.426 340.083 86.5311 339.759 87.9522 339.759C89.7205 339.759 91.1178 340.351 92.1441 341.536C92.5546 342.072 92.8546 342.664 93.0441 343.311H91.0309C90.8888 342.996 90.6835 342.703 90.4152 342.436C89.8152 341.836 88.9941 341.536 87.9522 341.536C87.1154 341.536 86.468 341.693 86.0102 342.01C85.5681 342.324 85.3469 342.68 85.3469 343.075C85.3469 343.359 85.4417 343.603 85.6312 343.809C85.8364 344.014 86.1602 344.196 86.6023 344.354C87.0442 344.511 87.4311 344.637 87.7627 344.732C88.1101 344.811 88.6074 344.914 89.2548 345.041C91.8599 345.577 93.1624 346.737 93.1624 348.522C93.1624 349.532 92.7361 350.376 91.8835 351.055C91.0309 351.735 89.8388 352.075 88.3074 352.075C86.3811 352.075 84.897 351.427 83.8549 350.132C83.4129 349.563 83.0813 348.909 82.8604 348.167Z" fill="#F74B39"/>
</g>
<defs>
<clipPath id="clip0_1_2">
<rect width="289.984" height="352.44" fill="white"/>
</clipPath>
</defs>
</svg>
