<svg xmlns="http://www.w3.org/2000/svg" xmlns:xlink="http://www.w3.org/1999/xlink" width="500" zoomAndPan="magnify" viewBox="0 0 375 374.999991" height="500" preserveAspectRatio="xMidYMid meet" version="1.0"><defs><g/><clipPath id="4d239943b6"><path d="M 159.640625 89.503906 L 262.492188 89.503906 L 262.492188 179.902344 L 159.640625 179.902344 Z M 159.640625 89.503906 " clip-rule="nonzero"/></clipPath><clipPath id="3dfba4d242"><path d="M 132.292969 96.394531 L 222.6875 96.394531 L 222.6875 199.25 L 132.292969 199.25 Z M 132.292969 96.394531 " clip-rule="nonzero"/></clipPath><clipPath id="4d5d20249e"><path d="M 112.5 69 L 216 69 L 216 160 L 112.5 160 Z M 112.5 69 " clip-rule="nonzero"/></clipPath><clipPath id="519e01348c"><path d="M 152 49.253906 L 244 49.253906 L 244 153 L 152 153 Z M 152 49.253906 " clip-rule="nonzero"/></clipPath></defs><rect x="-37.5" width="450" fill="#ffffff" y="-37.499999" height="449.999989" fill-opacity="1"/><rect x="-37.5" width="450" fill="#151515" y="-37.499999" height="449.999989" fill-opacity="1"/><g clip-path="url(#4d239943b6)"><path fill="#f0c901" d="M 262.492188 123.777344 C 262.492188 110.882812 258.136719 99.011719 250.816406 89.542969 C 254.007812 94.621094 256.355469 100.347656 257.621094 106.570312 C 262.875 132.40625 247.644531 157.652344 223.078125 165.472656 C 243.78125 155.609375 255.933594 132.609375 251.15625 109.125 C 250.808594 107.410156 250.378906 105.734375 249.871094 104.101562 C 250.105469 106.183594 250.226562 108.296875 250.226562 110.441406 C 250.226562 141.371094 225.152344 166.445312 194.226562 166.445312 C 181.195312 166.445312 169.203125 161.992188 159.6875 154.527344 C 169.699219 169.734375 186.921875 179.777344 206.492188 179.777344 C 237.421875 179.777344 262.492188 154.707031 262.492188 123.777344 " fill-opacity="1" fill-rule="nonzero"/></g><g clip-path="url(#3dfba4d242)"><path fill="#ffde59" d="M 188.347656 199.25 C 201.238281 199.25 213.113281 194.890625 222.578125 187.570312 C 217.503906 190.761719 211.777344 193.109375 205.554688 194.375 C 179.714844 199.632812 154.472656 184.398438 146.652344 159.832031 C 156.515625 180.539062 179.511719 192.6875 203 187.910156 C 204.714844 187.5625 206.390625 187.132812 208.023438 186.625 C 205.941406 186.859375 203.824219 186.980469 201.679688 186.980469 C 170.753906 186.980469 145.679688 161.910156 145.679688 130.980469 C 145.679688 117.949219 150.132812 105.957031 157.597656 96.441406 C 142.386719 106.453125 132.347656 123.675781 132.347656 143.246094 C 132.347656 174.175781 157.417969 199.25 188.347656 199.25 " fill-opacity="1" fill-rule="nonzero"/></g><g clip-path="url(#4d5d20249e)"><path fill="#f0c901" d="M 112.875 125.101562 C 112.875 137.996094 117.234375 149.871094 124.554688 159.335938 C 121.363281 154.257812 119.015625 148.535156 117.75 142.3125 C 112.492188 116.472656 127.722656 91.226562 152.292969 83.40625 C 131.585938 93.269531 119.433594 116.269531 124.210938 139.757812 C 124.558594 141.46875 124.992188 143.144531 125.5 144.777344 C 125.265625 142.695312 125.140625 140.582031 125.140625 138.4375 C 125.140625 107.507812 150.214844 82.4375 181.144531 82.4375 C 194.175781 82.4375 206.167969 86.886719 215.683594 94.351562 C 205.671875 79.144531 188.449219 69.101562 168.875 69.101562 C 137.949219 69.101562 112.875 94.175781 112.875 125.101562 " fill-opacity="1" fill-rule="nonzero"/></g><g clip-path="url(#519e01348c)"><path fill="#ffde59" d="M 187.019531 49.632812 C 174.128906 49.632812 162.253906 53.988281 152.789062 61.308594 C 157.867188 58.117188 163.589844 55.769531 169.8125 54.503906 C 195.652344 49.25 220.898438 64.480469 228.71875 89.046875 C 218.851562 68.34375 195.855469 56.191406 172.367188 60.96875 C 170.65625 61.316406 168.980469 61.746094 167.34375 62.253906 C 169.425781 62.019531 171.542969 61.898438 173.6875 61.898438 C 204.617188 61.898438 229.6875 86.96875 229.6875 117.898438 C 229.6875 130.929688 225.238281 142.921875 217.773438 152.4375 C 232.980469 142.425781 243.023438 125.203125 243.023438 105.632812 C 243.023438 74.703125 217.949219 49.632812 187.019531 49.632812 " fill-opacity="1" fill-rule="nonzero"/></g><g fill="#f6c208" fill-opacity="1"><g transform="translate(93.77968, 264.895135)"><g><path d="M 15.703125 -35.875 C 15.703125 -35.3125 15.601562 -34.507812 15.40625 -33.46875 C 15.207031 -32.4375 14.9375 -31.226562 14.59375 -29.84375 C 14.257812 -28.46875 13.859375 -26.984375 13.390625 -25.390625 C 12.921875 -23.796875 12.410156 -22.15625 11.859375 -20.46875 C 11.304688 -18.78125 10.734375 -17.097656 10.140625 -15.421875 C 9.554688 -13.742188 8.957031 -12.144531 8.34375 -10.625 C 7.726562 -9.113281 7.132812 -7.738281 6.5625 -6.5 C 7.726562 -6.71875 8.914062 -6.941406 10.125 -7.171875 C 11.34375 -7.398438 12.550781 -7.640625 13.75 -7.890625 C 13.957031 -8.398438 14.21875 -9.179688 14.53125 -10.234375 C 14.84375 -11.296875 15.191406 -12.550781 15.578125 -14 C 15.972656 -15.445312 16.398438 -17.003906 16.859375 -18.671875 C 17.316406 -20.347656 17.796875 -22.0625 18.296875 -23.8125 C 18.804688 -25.570312 19.328125 -27.300781 19.859375 -29 C 20.398438 -30.707031 20.945312 -32.300781 21.5 -33.78125 C 22.0625 -35.269531 22.617188 -36.578125 23.171875 -37.703125 C 23.734375 -38.828125 24.285156 -39.695312 24.828125 -40.3125 C 25.378906 -40.925781 25.914062 -41.207031 26.4375 -41.15625 C 26.820312 -41.113281 27.226562 -40.988281 27.65625 -40.78125 C 28.082031 -40.570312 28.476562 -40.3125 28.84375 -40 C 29.21875 -39.695312 29.519531 -39.375 29.75 -39.03125 C 29.988281 -38.6875 30.109375 -38.359375 30.109375 -38.046875 C 30.109375 -37.492188 30.007812 -36.695312 29.8125 -35.65625 C 29.613281 -34.625 29.34375 -33.414062 29 -32.03125 C 28.664062 -30.65625 28.265625 -29.171875 27.796875 -27.578125 C 27.328125 -25.984375 26.816406 -24.335938 26.265625 -22.640625 C 25.710938 -20.953125 25.140625 -19.269531 24.546875 -17.59375 C 23.960938 -15.925781 23.363281 -14.332031 22.75 -12.8125 C 22.132812 -11.289062 21.539062 -9.910156 20.96875 -8.671875 C 21.882812 -8.847656 22.640625 -9.007812 23.234375 -9.15625 C 23.828125 -9.3125 24.363281 -9.457031 24.84375 -9.59375 C 25.332031 -9.726562 25.867188 -9.867188 26.453125 -10.015625 C 27.046875 -10.160156 27.789062 -10.328125 28.6875 -10.515625 C 28.6875 -10.578125 28.796875 -10.929688 29.015625 -11.578125 C 29.234375 -12.234375 29.539062 -13.097656 29.9375 -14.171875 C 30.332031 -15.253906 30.773438 -16.476562 31.265625 -17.84375 C 31.765625 -19.207031 32.289062 -20.632812 32.84375 -22.125 C 33.40625 -23.625 33.96875 -25.117188 34.53125 -26.609375 C 35.09375 -28.097656 35.625 -29.503906 36.125 -30.828125 C 36.632812 -32.160156 37.085938 -33.34375 37.484375 -34.375 C 37.890625 -35.414062 38.207031 -36.222656 38.4375 -36.796875 C 38.664062 -37.335938 38.992188 -37.847656 39.421875 -38.328125 C 39.847656 -38.804688 40.289062 -39.359375 40.75 -39.984375 C 41.019531 -39.734375 41.375 -39.472656 41.8125 -39.203125 C 42.257812 -38.941406 42.726562 -38.664062 43.21875 -38.375 C 43.707031 -38.09375 44.164062 -37.816406 44.59375 -37.546875 C 45.019531 -37.273438 45.351562 -37.019531 45.59375 -36.78125 C 45.332031 -35.695312 44.960938 -34.453125 44.484375 -33.046875 C 44.015625 -31.640625 43.484375 -30.117188 42.890625 -28.484375 C 42.304688 -26.859375 41.707031 -25.148438 41.09375 -23.359375 C 40.488281 -21.566406 39.90625 -19.734375 39.34375 -17.859375 C 38.789062 -15.992188 38.304688 -14.128906 37.890625 -12.265625 C 37.484375 -10.410156 37.191406 -8.59375 37.015625 -6.8125 C 36.953125 -6.207031 36.773438 -5.71875 36.484375 -5.34375 C 36.203125 -4.976562 35.703125 -4.75 34.984375 -4.65625 C 34.429688 -4.519531 33.640625 -4.363281 32.609375 -4.1875 C 31.578125 -4.007812 30.382812 -3.8125 29.03125 -3.59375 C 27.6875 -3.382812 26.238281 -3.164062 24.6875 -2.9375 C 23.144531 -2.707031 21.5625 -2.472656 19.9375 -2.234375 C 18.3125 -2.003906 16.71875 -1.773438 15.15625 -1.546875 C 13.59375 -1.316406 12.117188 -1.09375 10.734375 -0.875 C 9.359375 -0.664062 8.140625 -0.472656 7.078125 -0.296875 C 6.015625 -0.128906 5.179688 0.015625 4.578125 0.140625 C 4.335938 0.191406 4.117188 0.21875 3.921875 0.21875 C 3.265625 0.21875 2.675781 0.0390625 2.15625 -0.3125 C 1.644531 -0.675781 1.191406 -1.128906 0.796875 -1.671875 C 0.398438 -2.222656 0.0546875 -2.804688 -0.234375 -3.421875 C -0.535156 -4.035156 -0.785156 -4.59375 -0.984375 -5.09375 C -0.816406 -5.238281 -0.59375 -5.734375 -0.3125 -6.578125 C -0.0390625 -7.429688 0.28125 -8.546875 0.65625 -9.921875 C 1.03125 -11.296875 1.453125 -12.832031 1.921875 -14.53125 C 2.390625 -16.238281 2.882812 -18.03125 3.40625 -19.90625 C 3.925781 -21.78125 4.46875 -23.640625 5.03125 -25.484375 C 5.59375 -27.328125 6.171875 -29.066406 6.765625 -30.703125 C 7.367188 -32.347656 7.96875 -33.800781 8.5625 -35.0625 C 9.15625 -36.332031 9.742188 -37.316406 10.328125 -38.015625 C 10.910156 -38.722656 11.476562 -39.046875 12.03125 -38.984375 C 12.425781 -38.929688 12.832031 -38.800781 13.25 -38.59375 C 13.675781 -38.394531 14.070312 -38.140625 14.4375 -37.828125 C 14.8125 -37.515625 15.113281 -37.1875 15.34375 -36.84375 C 15.582031 -36.5 15.703125 -36.175781 15.703125 -35.875 Z M 15.703125 -35.875 "/></g></g></g><g fill="#f6c208" fill-opacity="1"><g transform="translate(137.06791, 264.895135)"><g><path d="M 18.90625 -7.859375 C 17.8125 -8.140625 16.628906 -8.378906 15.359375 -8.578125 C 14.085938 -8.785156 12.8125 -8.960938 11.53125 -9.109375 C 10.257812 -9.253906 9.070312 -9.363281 7.96875 -9.4375 C 7.507812 -8.800781 6.957031 -8.050781 6.3125 -7.1875 C 5.675781 -6.332031 5.007812 -5.425781 4.3125 -4.46875 C 3.625 -3.507812 2.957031 -2.5625 2.3125 -1.625 C 1.664062 -0.6875 1.109375 0.171875 0.640625 0.953125 C 0.492188 0.972656 0.203125 0.867188 -0.234375 0.640625 C -0.679688 0.410156 -1.191406 0.117188 -1.765625 -0.234375 C -2.335938 -0.597656 -2.898438 -0.984375 -3.453125 -1.390625 C -4.003906 -1.804688 -4.46875 -2.175781 -4.84375 -2.5 C -4.226562 -3.476562 -3.394531 -4.660156 -2.34375 -6.046875 C -1.300781 -7.441406 -0.0976562 -8.976562 1.265625 -10.65625 C 2.640625 -12.34375 4.144531 -14.125 5.78125 -16 C 7.414062 -17.875 9.132812 -19.789062 10.9375 -21.75 C 12.738281 -23.71875 14.597656 -25.664062 16.515625 -27.59375 C 18.441406 -29.53125 20.375 -31.40625 22.3125 -33.21875 C 24.257812 -35.03125 26.171875 -36.710938 28.046875 -38.265625 C 28.492188 -38.265625 28.988281 -38.210938 29.53125 -38.109375 C 30.082031 -38.015625 30.601562 -37.894531 31.09375 -37.75 C 31.582031 -37.601562 31.972656 -37.453125 32.265625 -37.296875 C 32.554688 -37.140625 32.6875 -37 32.65625 -36.875 C 32 -34.6875 31.351562 -32.378906 30.71875 -29.953125 C 30.082031 -27.523438 29.503906 -25.0625 28.984375 -22.5625 C 28.460938 -20.0625 28.046875 -17.585938 27.734375 -15.140625 C 27.421875 -12.691406 27.265625 -10.347656 27.265625 -8.109375 C 27.265625 -7.066406 27.3125 -5.992188 27.40625 -4.890625 C 27.507812 -3.785156 27.5625 -2.773438 27.5625 -1.859375 C 27.5625 -0.828125 27.429688 0.0234375 27.171875 0.703125 C 26.921875 1.378906 26.414062 1.71875 25.65625 1.71875 C 25.601562 1.71875 25.554688 1.710938 25.515625 1.703125 C 25.472656 1.691406 25.425781 1.6875 25.375 1.6875 C 24.070312 1.5625 23.007812 1.289062 22.1875 0.875 C 21.375 0.457031 20.742188 -0.0664062 20.296875 -0.703125 C 19.847656 -1.347656 19.53125 -2.054688 19.34375 -2.828125 C 19.15625 -3.609375 19.039062 -4.425781 19 -5.28125 C 18.957031 -6.132812 18.925781 -6.992188 18.90625 -7.859375 Z M 22.65625 -25.671875 C 22.195312 -25.316406 21.625 -24.78125 20.9375 -24.0625 C 20.257812 -23.351562 19.503906 -22.535156 18.671875 -21.609375 C 17.835938 -20.691406 16.960938 -19.726562 16.046875 -18.71875 C 15.128906 -17.71875 14.21875 -16.726562 13.3125 -15.75 C 12.40625 -14.769531 11.546875 -13.878906 10.734375 -13.078125 L 19.0625 -11.984375 C 19.144531 -12.328125 19.269531 -12.859375 19.4375 -13.578125 C 19.613281 -14.304688 19.816406 -15.148438 20.046875 -16.109375 C 20.273438 -17.066406 20.507812 -18.050781 20.75 -19.0625 C 21 -20.070312 21.238281 -21.035156 21.46875 -21.953125 C 21.707031 -22.867188 21.929688 -23.660156 22.140625 -24.328125 C 22.359375 -24.992188 22.53125 -25.441406 22.65625 -25.671875 Z M 22.65625 -25.671875 "/></g></g></g><g fill="#f6c208" fill-opacity="1"><g transform="translate(170.605923, 264.895135)"><g><path d="M 11.828125 -26.578125 C 11.421875 -25.191406 10.953125 -23.671875 10.421875 -22.015625 C 9.890625 -20.359375 9.335938 -18.65625 8.765625 -16.90625 C 8.191406 -15.15625 7.628906 -13.4375 7.078125 -11.75 C 6.535156 -10.0625 6.03125 -8.476562 5.5625 -7 C 5.101562 -5.519531 4.710938 -4.222656 4.390625 -3.109375 C 4.253906 -2.648438 4.132812 -2.296875 4.03125 -2.046875 C 3.9375 -1.804688 3.742188 -1.6875 3.453125 -1.6875 C 2.929688 -1.6875 2.378906 -1.828125 1.796875 -2.109375 C 1.222656 -2.390625 0.679688 -2.738281 0.171875 -3.15625 C -0.335938 -3.582031 -0.742188 -4.019531 -1.046875 -4.46875 C -1.359375 -4.914062 -1.515625 -5.3125 -1.515625 -5.65625 C -1.515625 -7.3125 -1.320312 -9.050781 -0.9375 -10.875 C -0.5625 -12.707031 -0.0625 -14.585938 0.5625 -16.515625 C 1.1875 -18.453125 1.859375 -20.40625 2.578125 -22.375 C 3.296875 -24.34375 3.992188 -26.296875 4.671875 -28.234375 C 5.359375 -30.171875 5.957031 -32.0625 6.46875 -33.90625 C 6.632812 -34.457031 6.773438 -34.925781 6.890625 -35.3125 C 7.003906 -35.695312 7.191406 -35.992188 7.453125 -36.203125 C 7.710938 -36.421875 8.128906 -36.546875 8.703125 -36.578125 C 9.191406 -36.253906 9.75 -35.765625 10.375 -35.109375 C 11 -34.453125 11.660156 -33.707031 12.359375 -32.875 C 13.066406 -32.039062 13.773438 -31.171875 14.484375 -30.265625 C 15.203125 -29.359375 15.894531 -28.476562 16.5625 -27.625 C 17.226562 -26.769531 17.851562 -25.992188 18.4375 -25.296875 C 19.019531 -24.597656 19.523438 -24.046875 19.953125 -23.640625 C 20.390625 -23.234375 20.722656 -23.03125 20.953125 -23.03125 C 21.160156 -23.144531 21.566406 -23.460938 22.171875 -23.984375 C 22.773438 -24.503906 23.523438 -25.160156 24.421875 -25.953125 C 25.328125 -26.742188 26.316406 -27.601562 27.390625 -28.53125 C 28.472656 -29.46875 29.585938 -30.410156 30.734375 -31.359375 C 31.890625 -32.304688 33.035156 -33.191406 34.171875 -34.015625 C 35.304688 -34.835938 36.375 -35.539062 37.375 -36.125 C 38.375 -36.707031 39.257812 -37.09375 40.03125 -37.28125 C 40.550781 -36.894531 41.097656 -36.46875 41.671875 -36 C 42.242188 -35.53125 42.757812 -35.015625 43.21875 -34.453125 C 43.6875 -33.890625 44.003906 -33.265625 44.171875 -32.578125 C 43.679688 -31.585938 43.128906 -30.390625 42.515625 -28.984375 C 41.898438 -27.578125 41.25 -26.039062 40.5625 -24.375 C 39.882812 -22.707031 39.1875 -20.976562 38.46875 -19.1875 C 37.75 -17.40625 37.03125 -15.609375 36.3125 -13.796875 C 35.601562 -11.992188 34.921875 -10.25 34.265625 -8.5625 C 33.617188 -6.882812 33.015625 -5.320312 32.453125 -3.875 C 31.890625 -2.4375 31.394531 -1.179688 30.96875 -0.109375 C 30.539062 0.960938 30.207031 1.773438 29.96875 2.328125 C 29.394531 2.328125 28.78125 2.253906 28.125 2.109375 C 27.46875 1.972656 26.84375 1.769531 26.25 1.5 C 25.664062 1.238281 25.191406 0.898438 24.828125 0.484375 C 24.460938 0.0664062 24.28125 -0.425781 24.28125 -1 C 24.28125 -1.59375 24.394531 -2.382812 24.625 -3.375 C 24.863281 -4.375 25.179688 -5.503906 25.578125 -6.765625 C 25.984375 -8.035156 26.4375 -9.363281 26.9375 -10.75 C 27.4375 -12.144531 27.953125 -13.53125 28.484375 -14.90625 C 29.023438 -16.289062 29.546875 -17.601562 30.046875 -18.84375 C 30.546875 -20.082031 30.992188 -21.1875 31.390625 -22.15625 C 31.796875 -23.132812 32.113281 -23.898438 32.34375 -24.453125 C 32.582031 -25.003906 32.703125 -25.28125 32.703125 -25.28125 L 21.75 -17.25 C 21.445312 -17.25 21.035156 -17.421875 20.515625 -17.765625 C 20.003906 -18.109375 19.429688 -18.5625 18.796875 -19.125 C 18.171875 -19.6875 17.519531 -20.3125 16.84375 -21 C 16.175781 -21.6875 15.523438 -22.378906 14.890625 -23.078125 C 14.253906 -23.773438 13.671875 -24.429688 13.140625 -25.046875 C 12.609375 -25.660156 12.171875 -26.171875 11.828125 -26.578125 Z M 11.828125 -26.578125 "/></g></g></g><g fill="#f6c208" fill-opacity="1"><g transform="translate(212.44877, 264.895135)"><g><path d="M 18.90625 -7.859375 C 17.8125 -8.140625 16.628906 -8.378906 15.359375 -8.578125 C 14.085938 -8.785156 12.8125 -8.960938 11.53125 -9.109375 C 10.257812 -9.253906 9.070312 -9.363281 7.96875 -9.4375 C 7.507812 -8.800781 6.957031 -8.050781 6.3125 -7.1875 C 5.675781 -6.332031 5.007812 -5.425781 4.3125 -4.46875 C 3.625 -3.507812 2.957031 -2.5625 2.3125 -1.625 C 1.664062 -0.6875 1.109375 0.171875 0.640625 0.953125 C 0.492188 0.972656 0.203125 0.867188 -0.234375 0.640625 C -0.679688 0.410156 -1.191406 0.117188 -1.765625 -0.234375 C -2.335938 -0.597656 -2.898438 -0.984375 -3.453125 -1.390625 C -4.003906 -1.804688 -4.46875 -2.175781 -4.84375 -2.5 C -4.226562 -3.476562 -3.394531 -4.660156 -2.34375 -6.046875 C -1.300781 -7.441406 -0.0976562 -8.976562 1.265625 -10.65625 C 2.640625 -12.34375 4.144531 -14.125 5.78125 -16 C 7.414062 -17.875 9.132812 -19.789062 10.9375 -21.75 C 12.738281 -23.71875 14.597656 -25.664062 16.515625 -27.59375 C 18.441406 -29.53125 20.375 -31.40625 22.3125 -33.21875 C 24.257812 -35.03125 26.171875 -36.710938 28.046875 -38.265625 C 28.492188 -38.265625 28.988281 -38.210938 29.53125 -38.109375 C 30.082031 -38.015625 30.601562 -37.894531 31.09375 -37.75 C 31.582031 -37.601562 31.972656 -37.453125 32.265625 -37.296875 C 32.554688 -37.140625 32.6875 -37 32.65625 -36.875 C 32 -34.6875 31.351562 -32.378906 30.71875 -29.953125 C 30.082031 -27.523438 29.503906 -25.0625 28.984375 -22.5625 C 28.460938 -20.0625 28.046875 -17.585938 27.734375 -15.140625 C 27.421875 -12.691406 27.265625 -10.347656 27.265625 -8.109375 C 27.265625 -7.066406 27.3125 -5.992188 27.40625 -4.890625 C 27.507812 -3.785156 27.5625 -2.773438 27.5625 -1.859375 C 27.5625 -0.828125 27.429688 0.0234375 27.171875 0.703125 C 26.921875 1.378906 26.414062 1.71875 25.65625 1.71875 C 25.601562 1.71875 25.554688 1.710938 25.515625 1.703125 C 25.472656 1.691406 25.425781 1.6875 25.375 1.6875 C 24.070312 1.5625 23.007812 1.289062 22.1875 0.875 C 21.375 0.457031 20.742188 -0.0664062 20.296875 -0.703125 C 19.847656 -1.347656 19.53125 -2.054688 19.34375 -2.828125 C 19.15625 -3.609375 19.039062 -4.425781 19 -5.28125 C 18.957031 -6.132812 18.925781 -6.992188 18.90625 -7.859375 Z M 22.65625 -25.671875 C 22.195312 -25.316406 21.625 -24.78125 20.9375 -24.0625 C 20.257812 -23.351562 19.503906 -22.535156 18.671875 -21.609375 C 17.835938 -20.691406 16.960938 -19.726562 16.046875 -18.71875 C 15.128906 -17.71875 14.21875 -16.726562 13.3125 -15.75 C 12.40625 -14.769531 11.546875 -13.878906 10.734375 -13.078125 L 19.0625 -11.984375 C 19.144531 -12.328125 19.269531 -12.859375 19.4375 -13.578125 C 19.613281 -14.304688 19.816406 -15.148438 20.046875 -16.109375 C 20.273438 -17.066406 20.507812 -18.050781 20.75 -19.0625 C 21 -20.070312 21.238281 -21.035156 21.46875 -21.953125 C 21.707031 -22.867188 21.929688 -23.660156 22.140625 -24.328125 C 22.359375 -24.992188 22.53125 -25.441406 22.65625 -25.671875 Z M 22.65625 -25.671875 "/></g></g></g><g fill="#f6c208" fill-opacity="1"><g transform="translate(245.986777, 264.895135)"><g><path d="M 24.984375 -19.328125 C 24.984375 -19.867188 24.976562 -20.414062 24.96875 -20.96875 C 24.96875 -21.53125 24.957031 -22.09375 24.9375 -22.65625 C 24.21875 -21.644531 23.394531 -20.585938 22.46875 -19.484375 C 21.550781 -18.378906 20.585938 -17.285156 19.578125 -16.203125 C 18.578125 -15.117188 17.570312 -14.09375 16.5625 -13.125 C 15.5625 -12.164062 14.625 -11.316406 13.75 -10.578125 C 12.570312 -9.597656 11.507812 -8.71875 10.5625 -7.9375 C 9.613281 -7.15625 8.722656 -6.441406 7.890625 -5.796875 C 7.054688 -5.148438 6.238281 -4.535156 5.4375 -3.953125 C 4.632812 -3.378906 3.796875 -2.796875 2.921875 -2.203125 C 2.046875 -1.617188 1.085938 -0.992188 0.046875 -0.328125 C -0.992188 0.328125 -2.1875 1.054688 -3.53125 1.859375 C -3.5625 1.828125 -3.710938 1.757812 -3.984375 1.65625 C -4.265625 1.550781 -4.582031 1.429688 -4.9375 1.296875 C -5.289062 1.171875 -5.597656 1.050781 -5.859375 0.9375 C -6.128906 0.832031 -6.285156 0.765625 -6.328125 0.734375 C -4.617188 -0.722656 -2.722656 -2.472656 -0.640625 -4.515625 C 1.429688 -6.566406 3.765625 -9.015625 6.359375 -11.859375 C 8.960938 -14.710938 11.863281 -18.0625 15.0625 -21.90625 C 15.476562 -22.394531 16.003906 -23.066406 16.640625 -23.921875 C 17.285156 -24.773438 17.976562 -25.734375 18.71875 -26.796875 C 19.46875 -27.859375 20.210938 -28.957031 20.953125 -30.09375 C 21.703125 -31.226562 22.378906 -32.316406 22.984375 -33.359375 C 23.585938 -34.410156 24.078125 -35.347656 24.453125 -36.171875 C 24.828125 -36.992188 25.015625 -37.628906 25.015625 -38.078125 C 25.023438 -38.546875 25.125 -38.882812 25.3125 -39.09375 C 25.507812 -39.3125 25.734375 -39.445312 25.984375 -39.5 C 26.234375 -39.5625 26.472656 -39.59375 26.703125 -39.59375 C 27.097656 -39.59375 27.539062 -39.488281 28.03125 -39.28125 C 28.53125 -39.082031 29.039062 -38.820312 29.5625 -38.5 C 30.09375 -38.1875 30.597656 -37.859375 31.078125 -37.515625 C 31.554688 -37.179688 31.96875 -36.882812 32.3125 -36.625 C 32.332031 -36.019531 32.34375 -35.421875 32.34375 -34.828125 C 32.34375 -34.234375 32.34375 -33.632812 32.34375 -33.03125 C 32.34375 -29.476562 32.304688 -26.007812 32.234375 -22.625 C 32.171875 -19.25 32.101562 -15.878906 32.03125 -12.515625 C 31.957031 -9.148438 31.921875 -5.695312 31.921875 -2.15625 C 31.921875 -1.34375 31.773438 -0.679688 31.484375 -0.171875 C 31.191406 0.335938 30.765625 0.59375 30.203125 0.59375 C 29.765625 0.59375 29.285156 0.378906 28.765625 -0.046875 C 28.242188 -0.472656 27.710938 -1.007812 27.171875 -1.65625 C 26.628906 -2.3125 26.109375 -2.976562 25.609375 -3.65625 C 25.117188 -4.332031 24.675781 -4.921875 24.28125 -5.421875 C 24.164062 -5.546875 24.09375 -5.707031 24.0625 -5.90625 C 24.03125 -6.113281 24.015625 -6.300781 24.015625 -6.46875 C 24.359375 -8.707031 24.601562 -10.851562 24.75 -12.90625 C 24.90625 -14.96875 24.984375 -17.109375 24.984375 -19.328125 Z M 24.984375 -19.328125 "/></g></g></g><g fill="#ffde59" fill-opacity="1"><g transform="translate(127.522672, 301.58872)"><g><path d="M 3.984375 -8.96875 L 3.890625 -8.96875 L 2.65625 -6.734375 C 2.65625 -6.734375 2.613281 -6.738281 2.53125 -6.75 C 2.457031 -6.769531 2.363281 -6.800781 2.25 -6.84375 C 2.132812 -6.894531 2.019531 -6.960938 1.90625 -7.046875 C 1.789062 -7.140625 1.695312 -7.257812 1.625 -7.40625 C 1.550781 -7.550781 1.515625 -7.734375 1.515625 -7.953125 C 1.515625 -7.972656 1.515625 -7.992188 1.515625 -8.015625 C 1.515625 -8.046875 1.515625 -8.078125 1.515625 -8.109375 C 1.554688 -8.523438 1.648438 -8.914062 1.796875 -9.28125 C 1.941406 -9.65625 2.132812 -9.976562 2.375 -10.25 C 2.613281 -10.53125 2.890625 -10.726562 3.203125 -10.84375 C 3.441406 -10.9375 3.675781 -11.003906 3.90625 -11.046875 C 4.144531 -11.097656 4.378906 -11.125 4.609375 -11.125 C 5.109375 -11.125 5.582031 -11.023438 6.03125 -10.828125 C 6.488281 -10.628906 6.90625 -10.351562 7.28125 -10 C 7.664062 -9.65625 8 -9.25 8.28125 -8.78125 C 8.5625 -8.320312 8.78125 -7.816406 8.9375 -7.265625 C 9.09375 -6.722656 9.171875 -6.160156 9.171875 -5.578125 C 9.171875 -5.472656 9.164062 -5.367188 9.15625 -5.265625 C 9.15625 -5.160156 9.148438 -5.054688 9.140625 -4.953125 C 9.117188 -4.742188 9.046875 -4.503906 8.921875 -4.234375 C 8.804688 -3.972656 8.65625 -3.6875 8.46875 -3.375 C 8.28125 -3.0625 8.066406 -2.738281 7.828125 -2.40625 C 7.585938 -2.070312 7.335938 -1.742188 7.078125 -1.421875 C 6.816406 -1.097656 6.554688 -0.789062 6.296875 -0.5 C 6.046875 -0.207031 5.800781 0.0507812 5.5625 0.28125 C 5.332031 0.519531 5.125 0.710938 4.9375 0.859375 C 4.75 1.015625 4.601562 1.113281 4.5 1.15625 C 4.332031 1.226562 4.148438 1.265625 3.953125 1.265625 C 3.710938 1.265625 3.453125 1.21875 3.171875 1.125 C 2.898438 1.039062 2.628906 0.921875 2.359375 0.765625 C 2.085938 0.617188 1.828125 0.445312 1.578125 0.25 C 1.328125 0.0507812 1.097656 -0.160156 0.890625 -0.390625 C 0.691406 -0.617188 0.523438 -0.851562 0.390625 -1.09375 C 0.265625 -1.34375 0.1875 -1.585938 0.15625 -1.828125 C 0.15625 -1.867188 0.15625 -1.90625 0.15625 -1.9375 C 0.15625 -1.976562 0.15625 -2.015625 0.15625 -2.046875 C 0.164062 -2.109375 0.1875 -2.164062 0.21875 -2.21875 C 0.257812 -2.28125 0.316406 -2.3125 0.390625 -2.3125 C 0.492188 -2.3125 0.644531 -2.265625 0.84375 -2.171875 C 1.039062 -2.078125 1.265625 -1.957031 1.515625 -1.8125 C 1.773438 -1.664062 2.039062 -1.507812 2.3125 -1.34375 C 2.59375 -1.175781 2.863281 -1.019531 3.125 -0.875 C 3.382812 -0.726562 3.617188 -0.609375 3.828125 -0.515625 C 4.035156 -0.421875 4.203125 -0.375 4.328125 -0.375 C 4.367188 -0.375 4.398438 -0.378906 4.421875 -0.390625 C 4.535156 -0.441406 4.664062 -0.535156 4.8125 -0.671875 C 4.96875 -0.816406 5.128906 -0.988281 5.296875 -1.1875 C 5.460938 -1.394531 5.628906 -1.617188 5.796875 -1.859375 C 5.960938 -2.097656 6.117188 -2.34375 6.265625 -2.59375 C 6.410156 -2.84375 6.535156 -3.078125 6.640625 -3.296875 C 6.753906 -3.523438 6.835938 -3.722656 6.890625 -3.890625 C 6.617188 -3.867188 6.335938 -3.851562 6.046875 -3.84375 C 5.765625 -3.832031 5.476562 -3.828125 5.1875 -3.828125 C 4.726562 -3.828125 4.285156 -3.835938 3.859375 -3.859375 C 3.429688 -3.890625 3.0625 -3.929688 2.75 -3.984375 L 2.671875 -4.875 C 3.128906 -4.9375 3.597656 -4.972656 4.078125 -4.984375 C 4.554688 -4.992188 5.035156 -5 5.515625 -5 C 5.992188 -5 6.484375 -5.023438 6.984375 -5.078125 C 6.984375 -5.597656 6.929688 -6.09375 6.828125 -6.5625 C 6.722656 -7.03125 6.554688 -7.441406 6.328125 -7.796875 C 6.097656 -8.160156 5.789062 -8.445312 5.40625 -8.65625 C 5.019531 -8.863281 4.546875 -8.96875 3.984375 -8.96875 Z M 3.984375 -8.96875 "/></g></g></g><g fill="#ffde59" fill-opacity="1"><g transform="translate(140.370209, 301.58872)"><g><path d="M 6.625 -5.125 C 6.625 -5.269531 6.625 -5.414062 6.625 -5.5625 C 6.625 -5.707031 6.617188 -5.859375 6.609375 -6.015625 C 6.421875 -5.742188 6.203125 -5.460938 5.953125 -5.171875 C 5.710938 -4.878906 5.457031 -4.585938 5.1875 -4.296875 C 4.925781 -4.015625 4.660156 -3.742188 4.390625 -3.484375 C 4.128906 -3.222656 3.878906 -3 3.640625 -2.8125 C 3.328125 -2.550781 3.046875 -2.316406 2.796875 -2.109375 C 2.546875 -1.898438 2.3125 -1.707031 2.09375 -1.53125 C 1.875 -1.363281 1.65625 -1.203125 1.4375 -1.046875 C 1.226562 -0.890625 1.003906 -0.734375 0.765625 -0.578125 C 0.535156 -0.421875 0.28125 -0.253906 0 -0.078125 C -0.269531 0.0859375 -0.582031 0.28125 -0.9375 0.5 C -0.945312 0.488281 -0.988281 0.46875 -1.0625 0.4375 C -1.132812 0.40625 -1.21875 0.375 -1.3125 0.34375 C -1.40625 0.3125 -1.484375 0.28125 -1.546875 0.25 C -1.617188 0.21875 -1.660156 0.195312 -1.671875 0.1875 C -1.222656 -0.195312 -0.722656 -0.660156 -0.171875 -1.203125 C 0.378906 -1.742188 1 -2.390625 1.6875 -3.140625 C 2.375 -3.898438 3.144531 -4.789062 4 -5.8125 C 4.101562 -5.9375 4.238281 -6.113281 4.40625 -6.34375 C 4.582031 -6.570312 4.769531 -6.828125 4.96875 -7.109375 C 5.164062 -7.390625 5.363281 -7.679688 5.5625 -7.984375 C 5.757812 -8.285156 5.9375 -8.570312 6.09375 -8.84375 C 6.257812 -9.125 6.390625 -9.375 6.484375 -9.59375 C 6.585938 -9.8125 6.640625 -9.976562 6.640625 -10.09375 C 6.640625 -10.226562 6.664062 -10.320312 6.71875 -10.375 C 6.769531 -10.425781 6.828125 -10.457031 6.890625 -10.46875 C 6.960938 -10.488281 7.023438 -10.5 7.078125 -10.5 C 7.179688 -10.5 7.300781 -10.472656 7.4375 -10.421875 C 7.570312 -10.367188 7.707031 -10.300781 7.84375 -10.21875 C 7.976562 -10.132812 8.109375 -10.046875 8.234375 -9.953125 C 8.367188 -9.867188 8.484375 -9.789062 8.578125 -9.71875 C 8.578125 -9.5625 8.578125 -9.398438 8.578125 -9.234375 C 8.578125 -9.078125 8.578125 -8.921875 8.578125 -8.765625 C 8.578125 -7.816406 8.566406 -6.894531 8.546875 -6 C 8.535156 -5.101562 8.519531 -4.207031 8.5 -3.3125 C 8.476562 -2.425781 8.46875 -1.515625 8.46875 -0.578125 C 8.46875 -0.359375 8.425781 -0.179688 8.34375 -0.046875 C 8.269531 0.0859375 8.160156 0.15625 8.015625 0.15625 C 7.898438 0.15625 7.769531 0.0976562 7.625 -0.015625 C 7.488281 -0.128906 7.347656 -0.269531 7.203125 -0.4375 C 7.066406 -0.613281 6.929688 -0.789062 6.796875 -0.96875 C 6.660156 -1.144531 6.539062 -1.300781 6.4375 -1.4375 C 6.40625 -1.46875 6.382812 -1.507812 6.375 -1.5625 C 6.375 -1.625 6.375 -1.675781 6.375 -1.71875 C 6.457031 -2.3125 6.519531 -2.878906 6.5625 -3.421875 C 6.601562 -3.972656 6.625 -4.539062 6.625 -5.125 Z M 6.625 -5.125 "/></g></g></g><g fill="#ffde59" fill-opacity="1"><g transform="translate(152.31451, 301.58872)"><g><path d="M -0.625 -1.671875 C -0.457031 -1.691406 -0.222656 -1.710938 0.078125 -1.734375 C 0.378906 -1.753906 0.722656 -1.773438 1.109375 -1.796875 C 1.390625 -2.171875 1.710938 -2.578125 2.078125 -3.015625 C 2.441406 -3.460938 2.835938 -3.929688 3.265625 -4.421875 C 3.691406 -4.910156 4.140625 -5.410156 4.609375 -5.921875 C 5.085938 -6.429688 5.570312 -6.9375 6.0625 -7.4375 C 6.5625 -7.945312 7.0625 -8.4375 7.5625 -8.90625 C 8.070312 -9.375 8.570312 -9.8125 9.0625 -10.21875 C 9.1875 -10.21875 9.316406 -10.203125 9.453125 -10.171875 C 9.597656 -10.148438 9.734375 -10.117188 9.859375 -10.078125 C 9.992188 -10.035156 10.097656 -9.992188 10.171875 -9.953125 C 10.253906 -9.921875 10.296875 -9.882812 10.296875 -9.84375 C 10.117188 -9.269531 9.945312 -8.664062 9.78125 -8.03125 C 9.613281 -7.394531 9.460938 -6.75 9.328125 -6.09375 C 9.191406 -5.4375 9.078125 -4.785156 8.984375 -4.140625 C 8.898438 -3.503906 8.859375 -2.894531 8.859375 -2.3125 C 9.222656 -2.34375 9.546875 -2.375 9.828125 -2.40625 C 10.117188 -2.4375 10.351562 -2.472656 10.53125 -2.515625 C 10.375 -2.160156 10.234375 -1.84375 10.109375 -1.5625 C 9.984375 -1.289062 9.867188 -1.035156 9.765625 -0.796875 C 9.660156 -0.566406 9.554688 -0.332031 9.453125 -0.09375 C 9.347656 0.132812 9.234375 0.378906 9.109375 0.640625 C 8.992188 0.898438 8.859375 1.191406 8.703125 1.515625 C 8.554688 1.835938 8.378906 2.210938 8.171875 2.640625 C 7.890625 2.640625 7.644531 2.609375 7.4375 2.546875 C 7.226562 2.492188 7.03125 2.410156 6.84375 2.296875 C 6.664062 2.191406 6.476562 2.0625 6.28125 1.90625 L 7.671875 -0.875 C 7.472656 -0.851562 7.210938 -0.835938 6.890625 -0.828125 C 6.566406 -0.816406 6.207031 -0.804688 5.8125 -0.796875 C 5.414062 -0.796875 5.003906 -0.789062 4.578125 -0.78125 C 4.160156 -0.769531 3.75 -0.757812 3.34375 -0.75 C 2.945312 -0.738281 2.582031 -0.71875 2.25 -0.6875 C 1.914062 -0.664062 1.640625 -0.628906 1.421875 -0.578125 L 1.21875 1.734375 C 1.207031 1.734375 1.191406 1.734375 1.171875 1.734375 C 1.148438 1.734375 1.128906 1.734375 1.109375 1.734375 C 0.984375 1.734375 0.832031 1.707031 0.65625 1.65625 C 0.476562 1.601562 0.304688 1.535156 0.140625 1.453125 C -0.0234375 1.367188 -0.164062 1.28125 -0.28125 1.1875 C -0.394531 1.09375 -0.457031 1.007812 -0.46875 0.9375 Z M 6.640625 -2.140625 L 6.640625 -2.15625 C 6.660156 -2.375 6.691406 -2.628906 6.734375 -2.921875 C 6.785156 -3.222656 6.84375 -3.539062 6.90625 -3.875 C 6.96875 -4.207031 7.03125 -4.535156 7.09375 -4.859375 C 7.164062 -5.191406 7.234375 -5.5 7.296875 -5.78125 C 7.367188 -6.0625 7.429688 -6.296875 7.484375 -6.484375 C 7.546875 -6.679688 7.597656 -6.8125 7.640625 -6.875 C 7.390625 -6.65625 7.113281 -6.394531 6.8125 -6.09375 C 6.507812 -5.800781 6.203125 -5.476562 5.890625 -5.125 C 5.578125 -4.78125 5.265625 -4.421875 4.953125 -4.046875 C 4.640625 -3.671875 4.34375 -3.300781 4.0625 -2.9375 C 3.789062 -2.582031 3.550781 -2.25 3.34375 -1.9375 C 3.875 -1.96875 4.421875 -2 4.984375 -2.03125 C 5.554688 -2.070312 6.109375 -2.109375 6.640625 -2.140625 Z M 6.640625 -2.140625 "/></g></g></g><g fill="#ffde59" fill-opacity="1"><g transform="translate(166.149764, 301.58872)"><g><path d="M 3.6875 -9.28125 C 3.695312 -9.15625 3.703125 -9.023438 3.703125 -8.890625 C 3.703125 -8.578125 3.664062 -8.207031 3.59375 -7.78125 C 3.519531 -7.363281 3.40625 -6.890625 3.25 -6.359375 L 2.3125 -3.5625 C 2.6875 -3.9375 3.078125 -4.328125 3.484375 -4.734375 C 3.890625 -5.140625 4.300781 -5.550781 4.71875 -5.96875 C 5.132812 -6.382812 5.535156 -6.785156 5.921875 -7.171875 C 6.304688 -7.554688 6.664062 -7.914062 7 -8.25 C 7.34375 -8.582031 7.648438 -8.875 7.921875 -9.125 C 8.035156 -9.257812 8.160156 -9.40625 8.296875 -9.5625 C 8.441406 -9.726562 8.59375 -9.882812 8.75 -10.03125 C 8.914062 -10.1875 9.070312 -10.328125 9.21875 -10.453125 C 9.375 -10.585938 9.519531 -10.691406 9.65625 -10.765625 C 9.789062 -10.835938 9.898438 -10.875 9.984375 -10.875 C 10.003906 -10.875 10.050781 -10.859375 10.125 -10.828125 C 10.207031 -10.804688 10.289062 -10.78125 10.375 -10.75 C 10.457031 -10.71875 10.535156 -10.6875 10.609375 -10.65625 C 10.679688 -10.632812 10.726562 -10.625 10.75 -10.625 C 10.570312 -10.238281 10.390625 -9.796875 10.203125 -9.296875 C 10.015625 -8.804688 9.820312 -8.28125 9.625 -7.71875 C 9.4375 -7.164062 9.25 -6.59375 9.0625 -6 C 8.882812 -5.40625 8.71875 -4.816406 8.5625 -4.234375 C 8.40625 -3.660156 8.265625 -3.109375 8.140625 -2.578125 C 8.023438 -2.046875 7.929688 -1.554688 7.859375 -1.109375 C 7.796875 -0.671875 7.757812 -0.289062 7.75 0.03125 C 7.75 0.09375 7.710938 0.164062 7.640625 0.25 C 7.578125 0.332031 7.488281 0.398438 7.375 0.453125 C 7.269531 0.515625 7.144531 0.546875 7 0.546875 C 6.90625 0.546875 6.800781 0.523438 6.6875 0.484375 C 6.570312 0.441406 6.453125 0.367188 6.328125 0.265625 C 6.210938 0.109375 6.097656 -0.0859375 5.984375 -0.328125 C 5.867188 -0.566406 5.75 -0.832031 5.625 -1.125 L 6.234375 -4.125 L 6.46875 -5.390625 C 6.46875 -5.429688 6.472656 -5.46875 6.484375 -5.5 C 6.492188 -5.539062 6.507812 -5.582031 6.53125 -5.625 C 6.175781 -5.25 5.8125 -4.859375 5.4375 -4.453125 C 5.0625 -4.046875 4.679688 -3.640625 4.296875 -3.234375 C 3.910156 -2.835938 3.53125 -2.453125 3.15625 -2.078125 C 2.789062 -1.710938 2.441406 -1.375 2.109375 -1.0625 C 1.773438 -0.75 1.472656 -0.484375 1.203125 -0.265625 C 0.929688 -0.046875 0.703125 0.109375 0.515625 0.203125 C 0.515625 0.210938 0.507812 0.21875 0.5 0.21875 L 0.484375 0.234375 L 0.46875 0.203125 C 0.28125 0.148438 0.125 0.0703125 0 -0.03125 C -0.132812 -0.132812 -0.265625 -0.25 -0.390625 -0.375 C -0.515625 -0.507812 -0.65625 -0.640625 -0.8125 -0.765625 C -0.519531 -1.753906 -0.175781 -2.753906 0.21875 -3.765625 C 0.613281 -4.773438 1.039062 -5.773438 1.5 -6.765625 C 1.957031 -7.753906 2.421875 -8.707031 2.890625 -9.625 C 2.972656 -9.757812 3.070312 -9.828125 3.1875 -9.828125 C 3.226562 -9.828125 3.273438 -9.8125 3.328125 -9.78125 C 3.378906 -9.75 3.425781 -9.703125 3.46875 -9.640625 Z M 3.6875 -9.28125 "/></g></g></g><g fill="#ffde59" fill-opacity="1"><g transform="translate(177.541727, 301.58872)"><g><path d="M 3.5625 -6.625 C 3.75 -6.738281 3.96875 -6.894531 4.21875 -7.09375 C 4.476562 -7.300781 4.757812 -7.53125 5.0625 -7.78125 C 5.375 -8.039062 5.691406 -8.300781 6.015625 -8.5625 C 6.347656 -8.832031 6.675781 -9.09375 7 -9.34375 C 7.332031 -9.601562 7.644531 -9.832031 7.9375 -10.03125 C 8.238281 -10.226562 8.515625 -10.382812 8.765625 -10.5 C 9.015625 -10.625 9.222656 -10.6875 9.390625 -10.6875 C 9.484375 -10.6875 9.582031 -10.671875 9.6875 -10.640625 C 9.800781 -10.609375 9.90625 -10.5625 10 -10.5 C 10.101562 -10.4375 10.1875 -10.363281 10.25 -10.28125 C 10.320312 -10.195312 10.359375 -10.109375 10.359375 -10.015625 C 10.359375 -9.953125 10.328125 -9.882812 10.265625 -9.8125 C 10.203125 -9.738281 10.125 -9.664062 10.03125 -9.59375 C 9.945312 -9.519531 9.859375 -9.445312 9.765625 -9.375 C 9.140625 -8.875 8.507812 -8.375 7.875 -7.875 C 7.25 -7.375 6.632812 -6.851562 6.03125 -6.3125 C 6.1875 -5.925781 6.375 -5.53125 6.59375 -5.125 C 6.820312 -4.71875 7.070312 -4.316406 7.34375 -3.921875 C 7.625 -3.523438 7.925781 -3.148438 8.25 -2.796875 C 8.582031 -2.453125 8.929688 -2.144531 9.296875 -1.875 C 9.660156 -1.601562 10.039062 -1.382812 10.4375 -1.21875 C 10.570312 -1.15625 10.675781 -1.09375 10.75 -1.03125 C 10.820312 -0.976562 10.878906 -0.910156 10.921875 -0.828125 C 10.960938 -0.742188 11.007812 -0.632812 11.0625 -0.5 C 10.988281 -0.488281 10.910156 -0.476562 10.828125 -0.46875 C 10.753906 -0.46875 10.679688 -0.46875 10.609375 -0.46875 C 10.054688 -0.46875 9.515625 -0.59375 8.984375 -0.84375 C 8.453125 -1.09375 7.9375 -1.4375 7.4375 -1.875 C 6.945312 -2.320312 6.472656 -2.835938 6.015625 -3.421875 C 5.566406 -4.015625 5.144531 -4.648438 4.75 -5.328125 L 2.890625 -3.9375 C 2.785156 -3.632812 2.6875 -3.320312 2.59375 -3 C 2.5 -2.675781 2.40625 -2.351562 2.3125 -2.03125 C 2.21875 -1.707031 2.117188 -1.398438 2.015625 -1.109375 C 1.921875 -0.816406 1.8125 -0.554688 1.6875 -0.328125 C 1.570312 -0.109375 1.441406 0.0625 1.296875 0.1875 C 1.148438 0.320312 0.988281 0.390625 0.8125 0.390625 C 0.6875 0.390625 0.546875 0.367188 0.390625 0.328125 C 0.234375 0.296875 0.0820312 0.242188 -0.0625 0.171875 C -0.207031 0.109375 -0.328125 0.03125 -0.421875 -0.0625 C -0.523438 -0.15625 -0.578125 -0.253906 -0.578125 -0.359375 C -0.578125 -0.566406 -0.535156 -0.851562 -0.453125 -1.21875 C -0.367188 -1.59375 -0.253906 -2.019531 -0.109375 -2.5 C 0.0234375 -2.976562 0.179688 -3.492188 0.359375 -4.046875 C 0.546875 -4.597656 0.738281 -5.164062 0.9375 -5.75 C 1.144531 -6.332031 1.351562 -6.910156 1.5625 -7.484375 C 1.769531 -8.066406 1.96875 -8.617188 2.15625 -9.140625 C 2.351562 -9.660156 2.53125 -10.132812 2.6875 -10.5625 C 2.800781 -10.882812 2.941406 -11.113281 3.109375 -11.25 C 3.285156 -11.382812 3.46875 -11.453125 3.65625 -11.453125 C 3.820312 -11.453125 3.972656 -11.40625 4.109375 -11.3125 C 4.242188 -11.21875 4.363281 -11.101562 4.46875 -10.96875 C 4.570312 -10.84375 4.648438 -10.71875 4.703125 -10.59375 C 4.765625 -10.476562 4.796875 -10.394531 4.796875 -10.34375 C 4.796875 -10.21875 4.765625 -10.039062 4.703125 -9.8125 C 4.640625 -9.582031 4.554688 -9.320312 4.453125 -9.03125 C 4.347656 -8.75 4.238281 -8.457031 4.125 -8.15625 C 4.019531 -7.863281 3.914062 -7.582031 3.8125 -7.3125 C 3.707031 -7.050781 3.625 -6.820312 3.5625 -6.625 Z M 3.5625 -6.625 "/></g></g></g><g fill="#ffde59" fill-opacity="1"><g transform="translate(190.161836, 301.58872)"><g/></g></g><g fill="#ffde59" fill-opacity="1"><g transform="translate(196.82969, 301.58872)"><g><path d="M 0.125 -0.65625 L 0.125 -0.703125 C 0.144531 -1.054688 0.195312 -1.445312 0.28125 -1.875 C 0.375 -2.300781 0.484375 -2.75 0.609375 -3.21875 C 0.742188 -3.6875 0.890625 -4.160156 1.046875 -4.640625 C 1.210938 -5.128906 1.375 -5.609375 1.53125 -6.078125 C 1.695312 -6.546875 1.84375 -7 1.96875 -7.4375 C 2.101562 -7.875 2.210938 -8.28125 2.296875 -8.65625 C 2.296875 -8.65625 2.242188 -8.648438 2.140625 -8.640625 C 2.046875 -8.628906 1.921875 -8.613281 1.765625 -8.59375 C 1.609375 -8.570312 1.429688 -8.550781 1.234375 -8.53125 C 1.046875 -8.507812 0.851562 -8.488281 0.65625 -8.46875 C 0.46875 -8.457031 0.289062 -8.445312 0.125 -8.4375 C -0.1875 -8.4375 -0.4375 -8.46875 -0.625 -8.53125 C -0.820312 -8.59375 -0.957031 -8.671875 -1.03125 -8.765625 C -1.113281 -8.867188 -1.15625 -8.976562 -1.15625 -9.09375 C -1.15625 -9.164062 -1.125 -9.226562 -1.0625 -9.28125 C -1 -9.34375 -0.894531 -9.378906 -0.75 -9.390625 C 0.195312 -9.484375 1.144531 -9.578125 2.09375 -9.671875 C 3.039062 -9.773438 3.988281 -9.859375 4.9375 -9.921875 C 5.882812 -9.992188 6.835938 -10.035156 7.796875 -10.046875 L 7.96875 -9.203125 L 4.609375 -8.8125 C 4.398438 -8.125 4.171875 -7.414062 3.921875 -6.6875 C 3.679688 -5.96875 3.429688 -5.242188 3.171875 -4.515625 C 2.921875 -3.796875 2.675781 -3.078125 2.4375 -2.359375 C 2.207031 -1.648438 2 -0.957031 1.8125 -0.28125 C 1.738281 -0.0390625 1.628906 0.132812 1.484375 0.25 C 1.347656 0.363281 1.207031 0.421875 1.0625 0.421875 C 0.90625 0.421875 0.753906 0.375 0.609375 0.28125 C 0.472656 0.1875 0.359375 0.0625 0.265625 -0.09375 C 0.171875 -0.257812 0.125 -0.445312 0.125 -0.65625 Z M 0.125 -0.65625 "/></g></g></g><g fill="#ffde59" fill-opacity="1"><g transform="translate(203.789952, 301.58872)"><g><path d="M 5.015625 -2.09375 C 4.722656 -2.164062 4.40625 -2.226562 4.0625 -2.28125 C 3.726562 -2.332031 3.390625 -2.375 3.046875 -2.40625 C 2.710938 -2.445312 2.398438 -2.476562 2.109375 -2.5 C 1.992188 -2.332031 1.847656 -2.132812 1.671875 -1.90625 C 1.503906 -1.675781 1.328125 -1.4375 1.140625 -1.1875 C 0.960938 -0.9375 0.785156 -0.6875 0.609375 -0.4375 C 0.441406 -0.1875 0.296875 0.0390625 0.171875 0.25 C 0.128906 0.257812 0.0507812 0.234375 -0.0625 0.171875 C -0.175781 0.109375 -0.3125 0.03125 -0.46875 -0.0625 C -0.625 -0.15625 -0.773438 -0.253906 -0.921875 -0.359375 C -1.066406 -0.472656 -1.1875 -0.570312 -1.28125 -0.65625 C -1.125 -0.914062 -0.90625 -1.226562 -0.625 -1.59375 C -0.34375 -1.96875 -0.0195312 -2.378906 0.34375 -2.828125 C 0.707031 -3.273438 1.101562 -3.742188 1.53125 -4.234375 C 1.96875 -4.734375 2.425781 -5.242188 2.90625 -5.765625 C 3.382812 -6.285156 3.875 -6.800781 4.375 -7.3125 C 4.882812 -7.832031 5.394531 -8.332031 5.90625 -8.8125 C 6.425781 -9.289062 6.9375 -9.738281 7.4375 -10.15625 C 7.5625 -10.15625 7.691406 -10.140625 7.828125 -10.109375 C 7.972656 -10.085938 8.109375 -10.054688 8.234375 -10.015625 C 8.367188 -9.972656 8.472656 -9.929688 8.546875 -9.890625 C 8.628906 -9.847656 8.671875 -9.8125 8.671875 -9.78125 C 8.492188 -9.195312 8.316406 -8.582031 8.140625 -7.9375 C 7.972656 -7.300781 7.820312 -6.648438 7.6875 -5.984375 C 7.550781 -5.316406 7.441406 -4.660156 7.359375 -4.015625 C 7.273438 -3.367188 7.234375 -2.75 7.234375 -2.15625 C 7.234375 -1.875 7.242188 -1.585938 7.265625 -1.296875 C 7.296875 -1.003906 7.3125 -0.738281 7.3125 -0.5 C 7.3125 -0.21875 7.273438 0.0078125 7.203125 0.1875 C 7.140625 0.363281 7.007812 0.453125 6.8125 0.453125 C 6.789062 0.453125 6.773438 0.453125 6.765625 0.453125 C 6.753906 0.453125 6.742188 0.453125 6.734375 0.453125 C 6.390625 0.410156 6.109375 0.332031 5.890625 0.21875 C 5.671875 0.113281 5.5 -0.0195312 5.375 -0.1875 C 5.257812 -0.351562 5.175781 -0.539062 5.125 -0.75 C 5.082031 -0.957031 5.054688 -1.171875 5.046875 -1.390625 C 5.035156 -1.617188 5.023438 -1.851562 5.015625 -2.09375 Z M 6.015625 -6.8125 C 5.890625 -6.71875 5.734375 -6.578125 5.546875 -6.390625 C 5.367188 -6.203125 5.171875 -5.984375 4.953125 -5.734375 C 4.734375 -5.492188 4.5 -5.238281 4.25 -4.96875 C 4.007812 -4.695312 3.769531 -4.429688 3.53125 -4.171875 C 3.289062 -3.921875 3.0625 -3.6875 2.84375 -3.46875 L 5.0625 -3.171875 C 5.082031 -3.265625 5.113281 -3.40625 5.15625 -3.59375 C 5.195312 -3.789062 5.25 -4.015625 5.3125 -4.265625 C 5.375 -4.523438 5.4375 -4.785156 5.5 -5.046875 C 5.570312 -5.316406 5.640625 -5.570312 5.703125 -5.8125 C 5.765625 -6.0625 5.820312 -6.273438 5.875 -6.453125 C 5.925781 -6.628906 5.972656 -6.75 6.015625 -6.8125 Z M 6.015625 -6.8125 "/></g></g></g><g fill="#ffde59" fill-opacity="1"><g transform="translate(214.636077, 301.58872)"><g><path d="M 3.5625 -6.625 C 3.75 -6.738281 3.96875 -6.894531 4.21875 -7.09375 C 4.476562 -7.300781 4.757812 -7.53125 5.0625 -7.78125 C 5.375 -8.039062 5.691406 -8.300781 6.015625 -8.5625 C 6.347656 -8.832031 6.675781 -9.09375 7 -9.34375 C 7.332031 -9.601562 7.644531 -9.832031 7.9375 -10.03125 C 8.238281 -10.226562 8.515625 -10.382812 8.765625 -10.5 C 9.015625 -10.625 9.222656 -10.6875 9.390625 -10.6875 C 9.484375 -10.6875 9.582031 -10.671875 9.6875 -10.640625 C 9.800781 -10.609375 9.90625 -10.5625 10 -10.5 C 10.101562 -10.4375 10.1875 -10.363281 10.25 -10.28125 C 10.320312 -10.195312 10.359375 -10.109375 10.359375 -10.015625 C 10.359375 -9.953125 10.328125 -9.882812 10.265625 -9.8125 C 10.203125 -9.738281 10.125 -9.664062 10.03125 -9.59375 C 9.945312 -9.519531 9.859375 -9.445312 9.765625 -9.375 C 9.140625 -8.875 8.507812 -8.375 7.875 -7.875 C 7.25 -7.375 6.632812 -6.851562 6.03125 -6.3125 C 6.1875 -5.925781 6.375 -5.53125 6.59375 -5.125 C 6.820312 -4.71875 7.070312 -4.316406 7.34375 -3.921875 C 7.625 -3.523438 7.925781 -3.148438 8.25 -2.796875 C 8.582031 -2.453125 8.929688 -2.144531 9.296875 -1.875 C 9.660156 -1.601562 10.039062 -1.382812 10.4375 -1.21875 C 10.570312 -1.15625 10.675781 -1.09375 10.75 -1.03125 C 10.820312 -0.976562 10.878906 -0.910156 10.921875 -0.828125 C 10.960938 -0.742188 11.007812 -0.632812 11.0625 -0.5 C 10.988281 -0.488281 10.910156 -0.476562 10.828125 -0.46875 C 10.753906 -0.46875 10.679688 -0.46875 10.609375 -0.46875 C 10.054688 -0.46875 9.515625 -0.59375 8.984375 -0.84375 C 8.453125 -1.09375 7.9375 -1.4375 7.4375 -1.875 C 6.945312 -2.320312 6.472656 -2.835938 6.015625 -3.421875 C 5.566406 -4.015625 5.144531 -4.648438 4.75 -5.328125 L 2.890625 -3.9375 C 2.785156 -3.632812 2.6875 -3.320312 2.59375 -3 C 2.5 -2.675781 2.40625 -2.351562 2.3125 -2.03125 C 2.21875 -1.707031 2.117188 -1.398438 2.015625 -1.109375 C 1.921875 -0.816406 1.8125 -0.554688 1.6875 -0.328125 C 1.570312 -0.109375 1.441406 0.0625 1.296875 0.1875 C 1.148438 0.320312 0.988281 0.390625 0.8125 0.390625 C 0.6875 0.390625 0.546875 0.367188 0.390625 0.328125 C 0.234375 0.296875 0.0820312 0.242188 -0.0625 0.171875 C -0.207031 0.109375 -0.328125 0.03125 -0.421875 -0.0625 C -0.523438 -0.15625 -0.578125 -0.253906 -0.578125 -0.359375 C -0.578125 -0.566406 -0.535156 -0.851562 -0.453125 -1.21875 C -0.367188 -1.59375 -0.253906 -2.019531 -0.109375 -2.5 C 0.0234375 -2.976562 0.179688 -3.492188 0.359375 -4.046875 C 0.546875 -4.597656 0.738281 -5.164062 0.9375 -5.75 C 1.144531 -6.332031 1.351562 -6.910156 1.5625 -7.484375 C 1.769531 -8.066406 1.96875 -8.617188 2.15625 -9.140625 C 2.351562 -9.660156 2.53125 -10.132812 2.6875 -10.5625 C 2.800781 -10.882812 2.941406 -11.113281 3.109375 -11.25 C 3.285156 -11.382812 3.46875 -11.453125 3.65625 -11.453125 C 3.820312 -11.453125 3.972656 -11.40625 4.109375 -11.3125 C 4.242188 -11.21875 4.363281 -11.101562 4.46875 -10.96875 C 4.570312 -10.84375 4.648438 -10.71875 4.703125 -10.59375 C 4.765625 -10.476562 4.796875 -10.394531 4.796875 -10.34375 C 4.796875 -10.21875 4.765625 -10.039062 4.703125 -9.8125 C 4.640625 -9.582031 4.554688 -9.320312 4.453125 -9.03125 C 4.347656 -8.75 4.238281 -8.457031 4.125 -8.15625 C 4.019531 -7.863281 3.914062 -7.582031 3.8125 -7.3125 C 3.707031 -7.050781 3.625 -6.820312 3.5625 -6.625 Z M 3.5625 -6.625 "/></g></g></g><g fill="#ffde59" fill-opacity="1"><g transform="translate(227.256186, 301.58872)"><g><path d="M 5.6875 -7.703125 C 5.425781 -7.640625 5.160156 -7.523438 4.890625 -7.359375 C 4.617188 -7.191406 4.351562 -6.988281 4.09375 -6.75 C 3.832031 -6.519531 3.585938 -6.257812 3.359375 -5.96875 C 3.128906 -5.6875 2.925781 -5.390625 2.75 -5.078125 C 2.582031 -4.773438 2.445312 -4.460938 2.34375 -4.140625 C 2.25 -3.828125 2.203125 -3.523438 2.203125 -3.234375 C 2.203125 -3.117188 2.238281 -2.988281 2.3125 -2.84375 C 2.394531 -2.695312 2.5 -2.539062 2.625 -2.375 C 2.757812 -2.21875 2.910156 -2.0625 3.078125 -1.90625 C 3.242188 -1.75 3.414062 -1.609375 3.59375 -1.484375 C 3.769531 -1.359375 3.941406 -1.253906 4.109375 -1.171875 C 4.273438 -1.097656 4.425781 -1.0625 4.5625 -1.0625 C 4.644531 -1.0625 4.785156 -1.109375 4.984375 -1.203125 C 5.179688 -1.304688 5.410156 -1.441406 5.671875 -1.609375 C 5.941406 -1.773438 6.226562 -1.957031 6.53125 -2.15625 C 6.832031 -2.351562 7.132812 -2.550781 7.4375 -2.75 C 7.738281 -2.945312 8.019531 -3.128906 8.28125 -3.296875 C 8.539062 -3.460938 8.765625 -3.59375 8.953125 -3.6875 C 9.140625 -3.789062 9.269531 -3.84375 9.34375 -3.84375 C 9.394531 -3.84375 9.429688 -3.816406 9.453125 -3.765625 C 9.472656 -3.722656 9.484375 -3.675781 9.484375 -3.625 C 9.484375 -3.601562 9.476562 -3.585938 9.46875 -3.578125 C 9.46875 -3.578125 9.460938 -3.554688 9.453125 -3.515625 C 9.398438 -3.328125 9.289062 -3.117188 9.125 -2.890625 C 8.96875 -2.660156 8.765625 -2.425781 8.515625 -2.1875 C 8.273438 -1.957031 8.007812 -1.726562 7.71875 -1.5 C 7.4375 -1.269531 7.140625 -1.050781 6.828125 -0.84375 C 6.515625 -0.644531 6.203125 -0.46875 5.890625 -0.3125 C 5.585938 -0.15625 5.300781 -0.0351562 5.03125 0.046875 C 4.757812 0.140625 4.515625 0.1875 4.296875 0.1875 C 4.160156 0.1875 3.976562 0.144531 3.75 0.0625 C 3.53125 -0.0078125 3.28125 -0.117188 3 -0.265625 C 2.726562 -0.410156 2.445312 -0.578125 2.15625 -0.765625 C 1.863281 -0.953125 1.578125 -1.148438 1.296875 -1.359375 C 1.023438 -1.566406 0.78125 -1.773438 0.5625 -1.984375 C 0.34375 -2.203125 0.164062 -2.410156 0.03125 -2.609375 C -0.09375 -2.816406 -0.15625 -3.007812 -0.15625 -3.1875 C -0.15625 -3.644531 -0.0664062 -4.113281 0.109375 -4.59375 C 0.285156 -5.082031 0.53125 -5.554688 0.84375 -6.015625 C 1.15625 -6.484375 1.523438 -6.921875 1.953125 -7.328125 C 2.378906 -7.734375 2.84375 -8.09375 3.34375 -8.40625 C 3.851562 -8.71875 4.390625 -8.960938 4.953125 -9.140625 C 5.515625 -9.316406 6.085938 -9.40625 6.671875 -9.40625 C 7.003906 -9.40625 7.285156 -9.332031 7.515625 -9.1875 C 7.742188 -9.050781 7.914062 -8.859375 8.03125 -8.609375 C 8.15625 -8.367188 8.21875 -8.09375 8.21875 -7.78125 C 8.21875 -7.59375 8.171875 -7.421875 8.078125 -7.265625 C 7.984375 -7.117188 7.863281 -6.984375 7.71875 -6.859375 C 7.582031 -6.742188 7.441406 -6.648438 7.296875 -6.578125 C 7.160156 -6.503906 7.046875 -6.445312 6.953125 -6.40625 C 6.859375 -6.363281 6.8125 -6.34375 6.8125 -6.34375 Z M 5.6875 -7.703125 "/></g></g></g><g fill="#ffde59" fill-opacity="1"><g transform="translate(238.66765, 301.58872)"><g><path d="M 3.6875 -9.28125 C 3.695312 -9.15625 3.703125 -9.023438 3.703125 -8.890625 C 3.703125 -8.578125 3.664062 -8.207031 3.59375 -7.78125 C 3.519531 -7.363281 3.40625 -6.890625 3.25 -6.359375 L 2.3125 -3.5625 C 2.6875 -3.9375 3.078125 -4.328125 3.484375 -4.734375 C 3.890625 -5.140625 4.300781 -5.550781 4.71875 -5.96875 C 5.132812 -6.382812 5.535156 -6.785156 5.921875 -7.171875 C 6.304688 -7.554688 6.664062 -7.914062 7 -8.25 C 7.34375 -8.582031 7.648438 -8.875 7.921875 -9.125 C 8.035156 -9.257812 8.160156 -9.40625 8.296875 -9.5625 C 8.441406 -9.726562 8.59375 -9.882812 8.75 -10.03125 C 8.914062 -10.1875 9.070312 -10.328125 9.21875 -10.453125 C 9.375 -10.585938 9.519531 -10.691406 9.65625 -10.765625 C 9.789062 -10.835938 9.898438 -10.875 9.984375 -10.875 C 10.003906 -10.875 10.050781 -10.859375 10.125 -10.828125 C 10.207031 -10.804688 10.289062 -10.78125 10.375 -10.75 C 10.457031 -10.71875 10.535156 -10.6875 10.609375 -10.65625 C 10.679688 -10.632812 10.726562 -10.625 10.75 -10.625 C 10.570312 -10.238281 10.390625 -9.796875 10.203125 -9.296875 C 10.015625 -8.804688 9.820312 -8.28125 9.625 -7.71875 C 9.4375 -7.164062 9.25 -6.59375 9.0625 -6 C 8.882812 -5.40625 8.71875 -4.816406 8.5625 -4.234375 C 8.40625 -3.660156 8.265625 -3.109375 8.140625 -2.578125 C 8.023438 -2.046875 7.929688 -1.554688 7.859375 -1.109375 C 7.796875 -0.671875 7.757812 -0.289062 7.75 0.03125 C 7.75 0.09375 7.710938 0.164062 7.640625 0.25 C 7.578125 0.332031 7.488281 0.398438 7.375 0.453125 C 7.269531 0.515625 7.144531 0.546875 7 0.546875 C 6.90625 0.546875 6.800781 0.523438 6.6875 0.484375 C 6.570312 0.441406 6.453125 0.367188 6.328125 0.265625 C 6.210938 0.109375 6.097656 -0.0859375 5.984375 -0.328125 C 5.867188 -0.566406 5.75 -0.832031 5.625 -1.125 L 6.234375 -4.125 L 6.46875 -5.390625 C 6.46875 -5.429688 6.472656 -5.46875 6.484375 -5.5 C 6.492188 -5.539062 6.507812 -5.582031 6.53125 -5.625 C 6.175781 -5.25 5.8125 -4.859375 5.4375 -4.453125 C 5.0625 -4.046875 4.679688 -3.640625 4.296875 -3.234375 C 3.910156 -2.835938 3.53125 -2.453125 3.15625 -2.078125 C 2.789062 -1.710938 2.441406 -1.375 2.109375 -1.0625 C 1.773438 -0.75 1.472656 -0.484375 1.203125 -0.265625 C 0.929688 -0.046875 0.703125 0.109375 0.515625 0.203125 C 0.515625 0.210938 0.507812 0.21875 0.5 0.21875 L 0.484375 0.234375 L 0.46875 0.203125 C 0.28125 0.148438 0.125 0.0703125 0 -0.03125 C -0.132812 -0.132812 -0.265625 -0.25 -0.390625 -0.375 C -0.515625 -0.507812 -0.65625 -0.640625 -0.8125 -0.765625 C -0.519531 -1.753906 -0.175781 -2.753906 0.21875 -3.765625 C 0.613281 -4.773438 1.039062 -5.773438 1.5 -6.765625 C 1.957031 -7.753906 2.421875 -8.707031 2.890625 -9.625 C 2.972656 -9.757812 3.070312 -9.828125 3.1875 -9.828125 C 3.226562 -9.828125 3.273438 -9.8125 3.328125 -9.78125 C 3.378906 -9.75 3.425781 -9.703125 3.46875 -9.640625 Z M 3.6875 -9.28125 "/></g></g></g></svg>